<svg width="22" height="22" viewBox="0 0 22 22" fill="none" xmlns="http://www.w3.org/2000/svg">
<path d="M10.9821 0.00142735C11.7943 0.00142735 12.5731 0.336349 13.1474 0.932515C13.7216 1.52868 14.0442 2.33725 14.0442 3.18036C14.0442 4.02346 13.7216 4.83204 13.1474 5.4282C12.5731 6.02437 11.7943 6.35929 10.9821 6.35929C10.1698 6.35929 9.39078 6.02429 8.81639 5.42799C8.242 4.83169 7.91931 4.02294 7.91931 3.17964C7.91931 2.33635 8.242 1.5276 8.81639 0.931296C9.39078 0.334997 10.1698 0 10.9821 0V0.00142735ZM10.9821 1.42888C10.5347 1.42888 10.1055 1.61341 9.78915 1.94187C9.47275 2.27034 9.295 2.71584 9.295 3.18036C9.295 3.64488 9.47275 4.09038 9.78915 4.41884C10.1055 4.74731 10.5347 4.93184 10.9821 4.93184C11.4298 4.93184 11.8591 4.74723 12.1756 4.41863C12.4921 4.09003 12.6699 3.64436 12.6699 3.17964C12.6699 2.71493 12.4921 2.26926 12.1756 1.94066C11.8591 1.61206 11.4298 1.42745 10.9821 1.42745V1.42888ZM1.397 12.149C1.397 12.3383 1.32457 12.5199 1.19564 12.6537C1.0667 12.7876 0.891836 12.8628 0.7095 12.8628C0.527164 12.8628 0.352295 12.7876 0.223364 12.6537C0.0944327 12.5199 0.022 12.3383 0.022 12.149V8.60039C0.0220445 8.25076 0.145689 7.9133 0.369483 7.65203C0.593277 7.39075 0.901655 7.22383 1.23612 7.18293L1.397 7.17294H5.18787C4.98781 7.53132 4.86578 7.93085 4.83038 8.34344L4.81938 8.60039H1.39563V12.149H1.397ZM21.2987 12.8628C21.4811 12.8628 21.656 12.7876 21.7849 12.6537C21.9138 12.5199 21.9862 12.3383 21.9862 12.149V8.60039L21.9766 8.4348C21.9375 8.08731 21.7769 7.76683 21.5252 7.53421C21.2735 7.30158 20.9482 7.17302 20.6112 7.17294H16.7833C16.984 7.53408 17.1133 7.94804 17.1435 8.3877L17.1504 8.60181H20.6112V12.149C20.6112 12.3383 20.6837 12.5199 20.8126 12.6537C20.9415 12.7876 21.1164 12.8628 21.2987 12.8628ZM14.4017 7.17294C14.7387 7.17302 15.064 7.30158 15.3157 7.53421C15.5674 7.76683 15.728 8.08731 15.7671 8.4348L15.7754 8.60039V12.149C15.7754 12.3383 15.7029 12.5199 15.574 12.6537C15.4451 12.7876 15.2702 12.8628 15.0879 12.8628C14.9055 12.8628 14.7307 12.7876 14.6017 12.6537C14.4728 12.5199 14.4004 12.3383 14.4004 12.149V8.60039H7.56938V12.149C7.56938 12.3383 7.49694 12.5199 7.36801 12.6537C7.23908 12.7876 7.06421 12.8628 6.88188 12.8628C6.69954 12.8628 6.52467 12.7876 6.39574 12.6537C6.26681 12.5199 6.19438 12.3383 6.19438 12.149V8.60039C6.19442 8.25076 6.31806 7.9133 6.54186 7.65203C6.76565 7.39075 7.07403 7.22383 7.4085 7.18293L7.56938 7.17294H14.4004H14.4017ZM20.471 3.62858C20.471 2.90416 20.1938 2.20941 19.7004 1.69717C19.207 1.18493 18.5377 0.897152 17.8399 0.897152C17.1421 0.897152 16.4729 1.18493 15.9795 1.69717C15.4861 2.20941 15.2089 2.90416 15.2089 3.62858C15.2089 4.353 15.4861 5.04775 15.9795 5.55999C16.4729 6.07223 17.1421 6.36 17.8399 6.36C18.5377 6.36 19.207 6.07223 19.7004 5.55999C20.1938 5.04775 20.471 4.353 20.471 3.62858ZM16.5839 3.62858C16.5839 3.28274 16.7162 2.95107 16.9518 2.70653C17.1873 2.46198 17.5068 2.3246 17.8399 2.3246C18.1731 2.3246 18.4926 2.46198 18.7281 2.70653C18.9637 2.95107 19.096 3.28274 19.096 3.62858C19.096 3.97441 18.9637 4.30608 18.7281 4.55063C18.4926 4.79517 18.1731 4.93255 17.8399 4.93255C17.5068 4.93255 17.1873 4.79517 16.9518 4.55063C16.7162 4.30608 16.5839 3.97441 16.5839 3.62858ZM4.147 0.896439C4.8448 0.896439 5.51402 1.18421 6.00744 1.69645C6.50086 2.2087 6.77806 2.90344 6.77806 3.62786C6.77806 4.35228 6.50086 5.04703 6.00744 5.55927C5.51402 6.07152 4.8448 6.35929 4.147 6.35929C3.4492 6.35929 2.77998 6.07152 2.28656 5.55927C1.79314 5.04703 1.51594 4.35228 1.51594 3.62786C1.51594 2.90344 1.79314 2.2087 2.28656 1.69645C2.77998 1.18421 3.4492 0.896439 4.147 0.896439ZM4.147 2.32389C3.81387 2.32389 3.49439 2.46127 3.25883 2.70581C3.02327 2.95036 2.89094 3.28203 2.89094 3.62786C2.89094 3.9737 3.02327 4.30537 3.25883 4.54991C3.49439 4.79446 3.81387 4.93184 4.147 4.93184C4.48013 4.93184 4.79961 4.79446 5.03517 4.54991C5.27073 4.30537 5.40306 3.9737 5.40306 3.62786C5.40306 3.28203 5.27073 2.95036 5.03517 2.70581C4.79961 2.46127 4.48013 2.32389 4.147 2.32389ZM0.6875 14.2902C0.505164 14.2902 0.330295 14.3654 0.201364 14.4992C0.072433 14.6331 0 14.8146 0 15.0039V16.4314C0 17.3778 0.362164 18.2855 1.00682 18.9548C1.65148 19.624 2.52582 20 3.4375 20H18.5625C19.4742 20 20.3485 19.624 20.9932 18.9548C21.6378 18.2855 22 17.3778 22 16.4314V15.0039C22 14.8146 21.9276 14.6331 21.7986 14.4992C21.6697 14.3654 21.4948 14.2902 21.3125 14.2902H0.6875ZM1.375 16.4314V15.7177H20.625V16.4314C20.625 16.9993 20.4077 17.5439 20.0209 17.9454C19.6341 18.347 19.1095 18.5725 18.5625 18.5725H3.4375C2.89049 18.5725 2.36589 18.347 1.97909 17.9454C1.5923 17.5439 1.375 16.9993 1.375 16.4314Z" fill="black"/>
</svg>
