<?xml version="1.0" standalone="no"?>
<!DOCTYPE svg PUBLIC "-//W3C//DTD SVG 20010904//EN"
 "http://www.w3.org/TR/2001/REC-SVG-20010904/DTD/svg10.dtd">
<svg version="1.0" xmlns="http://www.w3.org/2000/svg"
 width="34.000000pt" height="26.000000pt" viewBox="0 0 34.000000 26.000000"
 preserveAspectRatio="xMidYMid meet">

<g transform="translate(0.000000,26.000000) scale(0.100000,-0.100000)"
fill="#000000" stroke="none">
<path d="M115 248 c-36 -13 -82 -53 -101 -91 -16 -30 -9 -52 30 -95 33 -37 70
-52 126 -52 72 0 126 33 159 97 29 57 -78 156 -164 152 -11 0 -33 -5 -50 -11z
m135 -40 c17 -13 39 -35 48 -50 15 -26 15 -29 -4 -55 -36 -48 -70 -66 -123
-67 -53 -1 -88 17 -125 67 -19 26 -19 29 -4 55 26 45 75 72 128 72 32 0 57 -7
80 -22z"/>
<path d="M122 177 c-27 -28 -28 -57 -4 -88 37 -45 122 -16 122 41 0 9 -9 29
-21 44 -26 33 -68 34 -97 3z"/>
</g>
</svg>
