<svg width="28" height="28" viewBox="0 0 28 28" fill="none" xmlns="http://www.w3.org/2000/svg">
<path d="M12.659 7.46485H11.3437C11.2234 7.46485 11.125 7.56328 11.125 7.6836V15.2113C11.125 15.2824 11.1578 15.3481 11.2152 15.3891L15.7352 18.6895C15.8336 18.7605 15.9703 18.7414 16.0414 18.643L16.8234 17.5766C16.8973 17.4754 16.8754 17.3387 16.777 17.2703L12.8777 14.4512V7.6836C12.8777 7.56328 12.7793 7.46485 12.659 7.46485ZM18.6691 9.5211L22.9566 10.5684C23.0934 10.6012 23.2273 10.4973 23.2273 10.3578L23.2492 5.9418C23.2492 5.7586 23.0387 5.65469 22.8965 5.76953L18.5871 9.13555C18.5545 9.16075 18.5297 9.19462 18.5156 9.23328C18.5014 9.27194 18.4984 9.31382 18.507 9.3541C18.5156 9.39437 18.5353 9.43141 18.564 9.46095C18.5927 9.4905 18.6291 9.51134 18.6691 9.5211ZM23.2547 17.7543L21.7043 17.2211C21.6502 17.2026 21.5911 17.2059 21.5395 17.2305C21.4879 17.255 21.4479 17.2987 21.4281 17.3523C21.3762 17.4918 21.3215 17.6285 21.2641 17.7652C20.7773 18.9164 20.0801 19.9527 19.1887 20.8414C18.3072 21.7257 17.2625 22.4305 16.1125 22.9168C14.9212 23.4205 13.6407 23.679 12.3473 23.677C11.0402 23.677 9.77422 23.4227 8.58203 22.9168C7.43206 22.4305 6.38737 21.7257 5.50586 20.8414C4.61718 19.9527 3.91992 18.9164 3.43047 17.7652C2.92957 16.5733 2.67295 15.2929 2.67578 14C2.67578 12.693 2.93008 11.4242 3.43593 10.232C3.92265 9.08086 4.61992 8.04453 5.51133 7.15586C6.39283 6.27162 7.43753 5.5668 8.5875 5.08047C9.77422 4.57461 11.043 4.32032 12.35 4.32032C13.657 4.32032 14.923 4.57461 16.1152 5.08047C17.2652 5.5668 18.3099 6.27162 19.1914 7.15586C19.4703 7.4375 19.7328 7.73008 19.9734 8.03907L21.6086 6.75938C19.4566 4.0086 16.107 2.23946 12.3445 2.24219C5.79296 2.24493 0.532028 7.56602 0.597653 14.1203C0.663278 20.5598 5.89961 25.7578 12.35 25.7578C17.4223 25.7578 21.7426 22.5422 23.3887 18.0387C23.4297 17.9238 23.3695 17.7953 23.2547 17.7543Z" fill="black"/>
</svg>
