<svg width="24" height="24" viewBox="0 0 24 24" fill="none" xmlns="http://www.w3.org/2000/svg">
<path d="M19.5 3.75H4.5C3.25736 3.75 2.25 4.75736 2.25 6V19.5C2.25 20.7426 3.25736 21.75 4.5 21.75H19.5C20.7426 21.75 21.75 20.7426 21.75 19.5V6C21.75 4.75736 20.7426 3.75 19.5 3.75Z" stroke="black" stroke-width="1.5" stroke-linejoin="round"/>
<path d="M18 2.25V3.75M6 2.25V3.75V2.25Z" stroke="black" stroke-width="1.5" stroke-linecap="round" stroke-linejoin="round"/>
<path d="M9.14062 10.5H5.85938C5.52283 10.5 5.25 10.7728 5.25 11.1094V14.3906C5.25 14.7272 5.52283 15 5.85938 15H9.14062C9.47717 15 9.75 14.7272 9.75 14.3906V11.1094C9.75 10.7728 9.47717 10.5 9.14062 10.5Z" stroke="black" stroke-width="1.5" stroke-linecap="round" stroke-linejoin="round"/>
<path d="M21.75 7.5H2.25" stroke="black" stroke-width="1.5" stroke-linecap="round" stroke-linejoin="round"/>
</svg>
