<svg width="24" height="24" viewBox="0 0 24 24" fill="none" xmlns="http://www.w3.org/2000/svg">
<path fill-rule="evenodd" clip-rule="evenodd" d="M19.3334 22.6666C20.2175 22.6666 21.0653 22.3154 21.6904 21.6903C22.3156 21.0652 22.6667 20.2173 22.6667 19.3333C22.6667 18.4492 22.3156 17.6014 21.6904 16.9763C21.0653 16.3511 20.2175 16 19.3334 16C18.4494 16 17.6015 16.3511 16.9764 16.9763C16.3513 17.6014 16.0001 18.4492 16.0001 19.3333C16.0001 20.2173 16.3513 21.0652 16.9764 21.6903C17.6015 22.3154 18.4494 22.6666 19.3334 22.6666ZM19.3334 24C20.5711 24 21.7581 23.5083 22.6332 22.6331C23.5084 21.758 24.0001 20.571 24.0001 19.3333C24.0001 18.0956 23.5084 16.9086 22.6332 16.0335C21.7581 15.1583 20.5711 14.6666 19.3334 14.6666C18.0957 14.6666 16.9088 15.1583 16.0336 16.0335C15.1584 16.9086 14.6667 18.0956 14.6667 19.3333C14.6667 20.571 15.1584 21.758 16.0336 22.6331C16.9088 23.5083 18.0957 24 19.3334 24Z" fill="black"/>
<path fill-rule="evenodd" clip-rule="evenodd" d="M19.3334 17C19.5102 17 19.6798 17.0702 19.8048 17.1953C19.9298 17.3203 20.0001 17.4899 20.0001 17.6667V19.0573L20.4714 19.5287C20.5929 19.6544 20.66 19.8228 20.6585 19.9976C20.657 20.1724 20.5869 20.3396 20.4633 20.4632C20.3397 20.5868 20.1725 20.6569 19.9977 20.6585C19.8229 20.66 19.6545 20.5928 19.5287 20.4713L18.6667 19.6093V17.6667C18.6667 17.4899 18.737 17.3203 18.862 17.1953C18.987 17.0702 19.1566 17 19.3334 17ZM5.33341 11.3333H4.00008V12.6667H5.33341V11.3333ZM4.00008 10C3.64646 10 3.30732 10.1405 3.05727 10.3905C2.80722 10.6406 2.66675 10.9797 2.66675 11.3333V12.6667C2.66675 13.0203 2.80722 13.3594 3.05727 13.6095C3.30732 13.8595 3.64646 14 4.00008 14H5.33341C5.68704 14 6.02617 13.8595 6.27622 13.6095C6.52627 13.3594 6.66675 13.0203 6.66675 12.6667V11.3333C6.66675 10.9797 6.52627 10.6406 6.27622 10.3905C6.02617 10.1405 5.68704 10 5.33341 10H4.00008ZM10.6667 11.3333H9.33341V12.6667H10.6667V11.3333ZM9.33341 10C8.97979 10 8.64065 10.1405 8.39061 10.3905C8.14056 10.6406 8.00008 10.9797 8.00008 11.3333V12.6667C8.00008 13.0203 8.14056 13.3594 8.39061 13.6095C8.64065 13.8595 8.97979 14 9.33341 14H10.6667C11.0204 14 11.3595 13.8595 11.6096 13.6095C11.8596 13.3594 12.0001 13.0203 12.0001 12.6667V11.3333C12.0001 10.9797 11.8596 10.6406 11.6096 10.3905C11.3595 10.1405 11.0204 10 10.6667 10H9.33341ZM16.0001 11.3333H14.6667V12.6667H16.0001V11.3333ZM14.6667 10C14.3131 10 13.974 10.1405 13.7239 10.3905C13.4739 10.6406 13.3334 10.9797 13.3334 11.3333V12.6667C13.3334 13.0203 13.4739 13.3594 13.7239 13.6095C13.974 13.8595 14.3131 14 14.6667 14H16.0001C16.3537 14 16.6928 13.8595 16.9429 13.6095C17.1929 13.3594 17.3334 13.0203 17.3334 12.6667V11.3333C17.3334 10.9797 17.1929 10.6406 16.9429 10.3905C16.6928 10.1405 16.3537 10 16.0001 10H14.6667ZM5.33341 16.6667H4.00008V18H5.33341V16.6667ZM4.00008 15.3333C3.64646 15.3333 3.30732 15.4738 3.05727 15.7239C2.80722 15.9739 2.66675 16.313 2.66675 16.6667V18C2.66675 18.3536 2.80722 18.6928 3.05727 18.9428C3.30732 19.1929 3.64646 19.3333 4.00008 19.3333H5.33341C5.68704 19.3333 6.02617 19.1929 6.27622 18.9428C6.52627 18.6928 6.66675 18.3536 6.66675 18V16.6667C6.66675 16.313 6.52627 15.9739 6.27622 15.7239C6.02617 15.4738 5.68704 15.3333 5.33341 15.3333H4.00008ZM10.6667 16.6667H9.33341V18H10.6667V16.6667ZM9.33341 15.3333C8.97979 15.3333 8.64065 15.4738 8.39061 15.7239C8.14056 15.9739 8.00008 16.313 8.00008 16.6667V18C8.00008 18.3536 8.14056 18.6928 8.39061 18.9428C8.64065 19.1929 8.97979 19.3333 9.33341 19.3333H10.6667C11.0204 19.3333 11.3595 19.1929 11.6096 18.9428C11.8596 18.6928 12.0001 18.3536 12.0001 18V16.6667C12.0001 16.313 11.8596 15.9739 11.6096 15.7239C11.3595 15.4738 11.0204 15.3333 10.6667 15.3333H9.33341Z" fill="black"/>
<path fill-rule="evenodd" clip-rule="evenodd" d="M1.33333 4C1.33333 3.82319 1.40357 3.65362 1.5286 3.5286C1.65362 3.40357 1.82319 3.33333 2 3.33333H5.33333V2H2C1.46957 2 0.960859 2.21071 0.585787 2.58579C0.210714 2.96086 0 3.46957 0 4V20C0 20.5304 0.210714 21.0391 0.585787 21.4142C0.960859 21.7893 1.46957 22 2 22H15.5033C15.219 21.5928 15.0018 21.1426 14.86 20.6667H2C1.82319 20.6667 1.65362 20.5964 1.5286 20.4714C1.40357 20.3464 1.33333 20.1768 1.33333 20V4ZM18.6667 14.7133C19.1089 14.6501 19.5578 14.6501 20 14.7133V4C20 3.46957 19.7893 2.96086 19.4142 2.58579C19.0391 2.21071 18.5304 2 18 2H16V3.33333H18C18.1768 3.33333 18.3464 3.40357 18.4714 3.5286C18.5964 3.65362 18.6667 3.82319 18.6667 4V14.7133ZM6.66667 3.33333H13.7087V2H6.66667V3.33333Z" fill="black"/>
<path fill-rule="evenodd" clip-rule="evenodd" d="M19.9999 7.99996H1.33325V6.66663H19.9999V7.99996Z" fill="black"/>
<path d="M4 0.666667C4 0.489856 4.07024 0.320287 4.19526 0.195262C4.32029 0.070238 4.48986 0 4.66667 0C4.84348 0 5.01305 0.070238 5.13807 0.195262C5.2631 0.320287 5.33333 0.489856 5.33333 0.666667V4C5.33333 4.17681 5.2631 4.34638 5.13807 4.4714C5.01305 4.59643 4.84348 4.66667 4.66667 4.66667C4.48986 4.66667 4.32029 4.59643 4.19526 4.4714C4.07024 4.34638 4 4.17681 4 4V0.666667ZM13.3333 0.666667C13.3333 0.489856 13.4036 0.320287 13.5286 0.195262C13.6536 0.070238 13.8232 0 14 0C14.1768 0 14.3464 0.070238 14.4714 0.195262C14.5964 0.320287 14.6667 0.489856 14.6667 0.666667V4C14.6667 4.17681 14.5964 4.34638 14.4714 4.4714C14.3464 4.59643 14.1768 4.66667 14 4.66667C13.8232 4.66667 13.6536 4.59643 13.5286 4.4714C13.4036 4.34638 13.3333 4.17681 13.3333 4V0.666667Z" fill="black"/>
</svg>
