<svg width="30" height="30" viewBox="0 0 30 30" fill="none" xmlns="http://www.w3.org/2000/svg">
<path d="M12 26.25C10.4212 24.9033 8.95774 23.4269 7.625 21.8362C5.625 19.4475 3.25 15.89 3.25 12.5C3.24913 10.7687 3.76189 9.07605 4.72337 7.63628C5.68485 6.1965 7.05184 5.07432 8.65134 4.41174C10.2508 3.74916 12.0109 3.57598 13.7089 3.91411C15.4069 4.25223 16.9663 5.08647 18.19 6.31124C19.0047 7.12232 19.6504 8.08691 20.0899 9.14921C20.5293 10.2115 20.7537 11.3504 20.75 12.5C20.75 15.89 18.375 19.4475 16.375 21.8362C15.0423 23.4269 13.5788 24.9033 12 26.25ZM12 6.24999C10.343 6.25198 8.75445 6.9111 7.58278 8.08277C6.4111 9.25444 5.75199 10.843 5.75 12.5C5.75 13.9575 6.40875 16.4812 9.54375 20.2325C10.3164 21.1551 11.1363 22.0371 12 22.875C12.8638 22.038 13.684 21.1573 14.4575 20.2362C17.5913 16.48 18.25 13.9562 18.25 12.5C18.248 10.843 17.5889 9.25444 16.4172 8.08277C15.2456 6.9111 13.657 6.25198 12 6.24999ZM12 16.25C11.0054 16.25 10.0516 15.8549 9.34835 15.1516C8.64509 14.4484 8.25 13.4946 8.25 12.5C8.25 11.5054 8.64509 10.5516 9.34835 9.84834C10.0516 9.14508 11.0054 8.74999 12 8.74999C12.9946 8.74999 13.9484 9.14508 14.6517 9.84834C15.3549 10.5516 15.75 11.5054 15.75 12.5C15.75 13.4946 15.3549 14.4484 14.6517 15.1516C13.9484 15.8549 12.9946 16.25 12 16.25Z" fill="black"/>
</svg>
