<svg width="36" height="30" viewBox="0 0 36 30" fill="none" xmlns="http://www.w3.org/2000/svg">
<path d="M20.2925 15.3882C21.2341 14.5732 21.9894 13.5651 22.507 12.4324C23.0246 11.2997 23.2925 10.0689 23.2925 8.82353C23.2925 6.48338 22.3629 4.23908 20.7082 2.58435C19.0534 0.929619 16.8091 0 14.469 0C12.1289 0 9.88455 0.929619 8.22982 2.58435C6.57509 4.23908 5.64547 6.48338 5.64547 8.82353C5.64545 10.0689 5.91335 11.2997 6.43098 12.4324C6.94861 13.5651 7.70386 14.5732 8.64547 15.3882C6.17512 16.5069 4.07923 18.3133 2.60837 20.5915C1.13752 22.8698 0.353946 25.5235 0.351349 28.2353C0.351349 28.7033 0.537273 29.1522 0.868219 29.4831C1.19917 29.8141 1.64803 30 2.11605 30C2.58408 30 3.03294 29.8141 3.36389 29.4831C3.69484 29.1522 3.88076 28.7033 3.88076 28.2353C3.88076 25.4271 4.9963 22.734 6.98198 20.7483C8.96766 18.7626 11.6608 17.6471 14.469 17.6471C17.2772 17.6471 19.9703 18.7626 21.956 20.7483C23.9417 22.734 25.0572 25.4271 25.0572 28.2353C25.0572 28.7033 25.2432 29.1522 25.5741 29.4831C25.905 29.8141 26.3539 30 26.8219 30C27.29 30 27.7388 29.8141 28.0698 29.4831C28.4007 29.1522 28.5866 28.7033 28.5866 28.2353C28.584 25.5235 27.8005 22.8698 26.3296 20.5915C24.8588 18.3133 22.7629 16.5069 20.2925 15.3882ZM14.469 14.1176C13.4219 14.1176 12.3984 13.8072 11.5277 13.2254C10.6571 12.6437 9.97857 11.8169 9.57787 10.8495C9.17717 9.88213 9.07233 8.81766 9.2766 7.7907C9.48088 6.76374 9.98509 5.82042 10.7255 5.08002C11.4659 4.33963 12.4092 3.83541 13.4362 3.63114C14.4631 3.42686 15.5276 3.5317 16.495 3.9324C17.4623 4.3331 18.2892 5.01166 18.8709 5.88228C19.4526 6.75289 19.7631 7.77645 19.7631 8.82353C19.7631 10.2276 19.2053 11.5742 18.2125 12.567C17.2197 13.5599 15.8731 14.1176 14.469 14.1176ZM35.1337 9.93529C34.9696 9.76989 34.7745 9.63861 34.5594 9.54902C34.3444 9.45942 34.1137 9.4133 33.8808 9.4133C33.6478 9.4133 33.4171 9.45942 33.2021 9.54902C32.987 9.63861 32.7919 9.76989 32.6278 9.93529L29.0984 13.4647L28.0043 12.3529C27.8402 12.1875 27.6451 12.0563 27.43 11.9667C27.215 11.8771 26.9843 11.8309 26.7513 11.8309C26.5184 11.8309 26.2877 11.8771 26.0727 11.9667C25.8576 12.0563 25.6625 12.1875 25.4984 12.3529C25.1697 12.6836 24.9852 13.1308 24.9852 13.5971C24.9852 14.0633 25.1697 14.5105 25.4984 14.8412L27.8631 17.2059C28.1938 17.5346 28.641 17.719 29.1072 17.719C29.5734 17.719 30.0207 17.5346 30.3513 17.2059L35.0631 12.4941C35.2413 12.3341 35.385 12.1395 35.4856 11.9221C35.5861 11.7048 35.6414 11.4693 35.648 11.2299C35.6546 10.9905 35.6124 10.7523 35.524 10.5297C35.4356 10.3071 35.3028 10.1049 35.1337 9.93529Z" fill="#34B1E8"/>
</svg>
