<svg width="48" height="50" viewBox="0 0 48 50" fill="none" xmlns="http://www.w3.org/2000/svg">
<rect y="0.5" width="48" height="49" rx="15" fill="#FAC900"/>
<path d="M24 15.5C23.0111 15.5 22.0444 15.7932 21.2221 16.3427C20.3999 16.8921 19.759 17.673 19.3806 18.5866C19.0022 19.5002 18.9031 20.5055 19.0961 21.4755C19.289 22.4454 19.7652 23.3363 20.4645 24.0355C21.1637 24.7348 22.0546 25.211 23.0245 25.4039C23.9945 25.5969 24.9998 25.4978 25.9134 25.1194C26.827 24.741 27.6079 24.1001 28.1573 23.2779C28.7068 22.4556 29 21.4889 29 20.5C29 19.1739 28.4732 17.9021 27.5355 16.9645C26.5979 16.0268 25.3261 15.5 24 15.5ZM24 23.5C23.4067 23.5 22.8266 23.3241 22.3333 22.9944C21.8399 22.6648 21.4554 22.1962 21.2284 21.6481C21.0013 21.0999 20.9419 20.4967 21.0576 19.9147C21.1734 19.3328 21.4591 18.7982 21.8787 18.3787C22.2982 17.9591 22.8328 17.6734 23.4147 17.5576C23.9967 17.4419 24.5999 17.5013 25.1481 17.7284C25.6962 17.9554 26.1648 18.3399 26.4944 18.8333C26.8241 19.3266 27 19.9067 27 20.5C27 21.2956 26.6839 22.0587 26.1213 22.6213C25.5587 23.1839 24.7956 23.5 24 23.5ZM33 34.5V33.5C33 31.6435 32.2625 29.863 30.9497 28.5503C29.637 27.2375 27.8565 26.5 26 26.5H22C20.1435 26.5 18.363 27.2375 17.0503 28.5503C15.7375 29.863 15 31.6435 15 33.5V34.5H17V33.5C17 32.1739 17.5268 30.9021 18.4645 29.9645C19.4021 29.0268 20.6739 28.5 22 28.5H26C27.3261 28.5 28.5979 29.0268 29.5355 29.9645C30.4732 30.9021 31 32.1739 31 33.5V34.5H33Z" fill="black"/>
</svg>
