<svg width="36" height="30" viewBox="0 0 36 30" fill="none" xmlns="http://www.w3.org/2000/svg">
<path d="M20.289 15.3882C21.2306 14.5732 21.9859 13.5651 22.5035 12.4324C23.0211 11.2997 23.289 10.0689 23.289 8.82353C23.289 6.48338 22.3594 4.23908 20.7047 2.58435C19.0499 0.929619 16.8056 0 14.4655 0C12.1253 0 9.88104 0.929619 8.22631 2.58435C6.57158 4.23908 5.64196 6.48338 5.64196 8.82353C5.64194 10.0689 5.90984 11.2997 6.42747 12.4324C6.9451 13.5651 7.70035 14.5732 8.64196 15.3882C6.17162 16.5069 4.07572 18.3133 2.60486 20.5915C1.13401 22.8698 0.350437 25.5235 0.347839 28.2353C0.347839 28.7033 0.533763 29.1522 0.86471 29.4831C1.19566 29.8141 1.64452 30 2.11255 30C2.58057 30 3.02943 29.8141 3.36038 29.4831C3.69133 29.1522 3.87725 28.7033 3.87725 28.2353C3.87725 25.4271 4.99279 22.734 6.97847 20.7483C8.96415 18.7626 11.6573 17.6471 14.4655 17.6471C17.2737 17.6471 19.9668 18.7626 21.9525 20.7483C23.9382 22.734 25.0537 25.4271 25.0537 28.2353C25.0537 28.7033 25.2396 29.1522 25.5706 29.4831C25.9015 29.8141 26.3504 30 26.8184 30C27.2865 30 27.7353 29.8141 28.0663 29.4831C28.3972 29.1522 28.5831 28.7033 28.5831 28.2353C28.5805 25.5235 27.797 22.8698 26.3261 20.5915C24.8553 18.3133 22.7594 16.5069 20.289 15.3882ZM14.4655 14.1176C13.4184 14.1176 12.3948 13.8072 11.5242 13.2254C10.6536 12.6437 9.97506 11.8169 9.57436 10.8495C9.17366 9.88213 9.06882 8.81766 9.2731 7.7907C9.47737 6.76374 9.98159 5.82042 10.722 5.08002C11.4624 4.33963 12.4057 3.83541 13.4327 3.63114C14.4596 3.42686 15.5241 3.5317 16.4915 3.9324C17.4588 4.3331 18.2857 5.01166 18.8674 5.88228C19.4491 6.75289 19.7596 7.77645 19.7596 8.82353C19.7596 10.2276 19.2018 11.5742 18.209 12.567C17.2162 13.5599 15.8696 14.1176 14.4655 14.1176ZM33.7184 15L35.1302 13.6059C35.2947 13.4413 35.4253 13.246 35.5143 13.031C35.6033 12.816 35.6492 12.5856 35.6492 12.3529C35.6492 12.1202 35.6033 11.8898 35.5143 11.6749C35.4253 11.4599 35.2947 11.2645 35.1302 11.1C34.9657 10.9355 34.7703 10.8049 34.5553 10.7159C34.3404 10.6268 34.1099 10.581 33.8773 10.581C33.6446 10.581 33.4141 10.6268 33.1992 10.7159C32.9842 10.8049 32.7889 10.9355 32.6243 11.1L31.2302 12.5118L29.8361 11.1C29.6715 10.9355 29.4762 10.8049 29.2612 10.7159C29.0462 10.6268 28.8158 10.581 28.5831 10.581C28.1132 10.581 27.6625 10.7677 27.3302 11.1C27.1657 11.2645 27.0351 11.4599 26.9461 11.6749C26.857 11.8898 26.8112 12.1202 26.8112 12.3529C26.8112 12.8229 26.9979 13.2736 27.3302 13.6059L28.742 15L27.3302 16.3941C27.1648 16.5582 27.0335 16.7533 26.9439 16.9684C26.8543 17.1834 26.8082 17.4141 26.8082 17.6471C26.8082 17.88 26.8543 18.1107 26.9439 18.3257C27.0335 18.5408 27.1648 18.7359 27.3302 18.9C27.4942 19.0654 27.6894 19.1967 27.9045 19.2863C28.1195 19.3759 28.3502 19.422 28.5831 19.422C28.8161 19.422 29.0468 19.3759 29.2618 19.2863C29.4768 19.1967 29.672 19.0654 29.8361 18.9L31.2302 17.4882L32.6243 18.9C32.7884 19.0654 32.9835 19.1967 33.1986 19.2863C33.4136 19.3759 33.6443 19.422 33.8773 19.422C34.1102 19.422 34.3409 19.3759 34.5559 19.2863C34.771 19.1967 34.9661 19.0654 35.1302 18.9C35.2956 18.7359 35.4269 18.5408 35.5165 18.3257C35.6061 18.1107 35.6522 17.88 35.6522 17.6471C35.6522 17.4141 35.6061 17.1834 35.5165 16.9684C35.4269 16.7533 35.2956 16.5582 35.1302 16.3941L33.7184 15Z" fill="#FF4857"/>
</svg>
