<svg width="22" height="22" viewBox="0 0 22 22" fill="none" xmlns="http://www.w3.org/2000/svg">
<path d="M9.42857 8.64286C10.2621 8.64286 11.0615 8.31173 11.6509 7.72233C12.2403 7.13293 12.5714 6.33354 12.5714 5.5C12.5714 4.66646 12.2403 3.86706 11.6509 3.27766C11.0615 2.68826 10.2621 2.35714 9.42857 2.35714C8.59503 2.35714 7.79564 2.68826 7.20624 3.27766C6.61684 3.86706 6.28571 4.66646 6.28571 5.5C6.28571 6.33354 6.61684 7.13293 7.20624 7.72233C7.79564 8.31173 8.59503 8.64286 9.42857 8.64286ZM9.42857 7.07143C9.0118 7.07143 8.6121 6.90587 8.3174 6.61117C8.0227 6.31647 7.85714 5.91677 7.85714 5.5C7.85714 5.08323 8.0227 4.68353 8.3174 4.38883C8.6121 4.09413 9.0118 3.92857 9.42857 3.92857C9.84534 3.92857 10.245 4.09413 10.5397 4.38883C10.8344 4.68353 11 5.08323 11 5.5C11 5.91677 10.8344 6.31647 10.5397 6.61117C10.245 6.90587 9.84534 7.07143 9.42857 7.07143ZM5.5 9.42857C4.87485 9.42857 4.2753 9.67691 3.83325 10.119C3.3912 10.561 3.14286 11.1606 3.14286 11.7857C3.14286 12.3011 3.20571 13.4326 4.12186 14.4241C5.04429 15.4189 6.67071 16.1071 9.42543 16.1071C12.177 16.1071 13.8066 15.4251 14.729 14.4351C15.6514 13.4467 15.7143 12.3137 15.7143 11.7857C15.7143 11.4762 15.6533 11.1697 15.5349 10.8837C15.4164 10.5977 15.2428 10.3378 15.0239 10.119C14.805 9.90008 14.5452 9.72645 14.2592 9.608C13.9732 9.48954 13.6667 9.42857 13.3571 9.42857H5.5ZM4.71429 11.7857C4.71429 11.5773 4.79707 11.3775 4.94442 11.2301C5.09177 11.0828 5.29162 11 5.5 11H13.3571C13.5655 11 13.7654 11.0828 13.9127 11.2301C14.0601 11.3775 14.1429 11.5773 14.1429 11.7857C14.1429 12.1817 14.091 12.815 13.5803 13.3634C13.0711 13.9103 11.9476 14.5357 9.42543 14.5357C6.90486 14.5357 5.78443 13.9056 5.27686 13.3571C4.76457 12.804 4.71429 12.1691 4.71429 11.7857ZM0 4.71428C0 3.46398 0.496682 2.26488 1.38078 1.38078C2.26488 0.496682 3.46398 0 4.71429 0H14.1429C15.3932 0 16.5923 0.496682 17.4764 1.38078C18.3605 2.26488 18.8571 3.46398 18.8571 4.71428V14.1429C18.8571 15.3932 18.3605 16.5923 17.4764 17.4764C16.5923 18.3605 15.3932 18.8571 14.1429 18.8571H4.71429C3.46398 18.8571 2.26488 18.3605 1.38078 17.4764C0.496682 16.5923 0 15.3932 0 14.1429V4.71428ZM4.71429 1.57143C3.88075 1.57143 3.08135 1.90255 2.49195 2.49195C1.90255 3.08135 1.57143 3.88075 1.57143 4.71428V14.1429C1.57143 14.9764 1.90255 15.7758 2.49195 16.3652C3.08135 16.9546 3.88075 17.2857 4.71429 17.2857H14.1429C14.9764 17.2857 15.7758 16.9546 16.3652 16.3652C16.9546 15.7758 17.2857 14.9764 17.2857 14.1429V4.71428C17.2857 3.88075 16.9546 3.08135 16.3652 2.49195C15.7758 1.90255 14.9764 1.57143 14.1429 1.57143H4.71429ZM7.85714 22C7.19375 22.0008 6.5377 21.8612 5.93211 21.5903C5.32652 21.3195 4.7851 20.9236 4.34343 20.4286H14.9286C16.3873 20.4286 17.7862 19.8491 18.8177 18.8177C19.8491 17.7862 20.4286 16.3873 20.4286 14.9286V4.34343C21.3934 5.20771 22 6.46171 22 7.85714V14.9286C22 16.804 21.255 18.6027 19.9288 19.9288C18.6027 21.255 16.804 22 14.9286 22H7.85714Z" fill="black"/>
</svg>
