<svg width="30" height="30" viewBox="0 0 30 30" fill="none" xmlns="http://www.w3.org/2000/svg">
<path d="M6.75 10.125C6.75 9.22989 7.10558 8.37145 7.73851 7.73851C8.37145 7.10558 9.22989 6.75 10.125 6.75C11.0201 6.75 11.8785 7.10558 12.5115 7.73851C13.1444 8.37145 13.5 9.22989 13.5 10.125C13.5 11.0201 13.1444 11.8786 12.5115 12.5115C11.8785 13.1444 11.0201 13.5 10.125 13.5C9.22989 13.5 8.37145 13.1444 7.73851 12.5115C7.10558 11.8786 6.75 11.0201 6.75 10.125ZM10.125 5.25C8.83207 5.25 7.59209 5.76361 6.67785 6.67785C5.76361 7.59209 5.25 8.83207 5.25 10.125C5.25 11.4179 5.76361 12.6579 6.67785 13.5721C7.59209 14.4864 8.83207 15 10.125 15C11.4179 15 12.6579 14.4864 13.5721 13.5721C14.4864 12.6579 15 11.4179 15 10.125C15 8.83207 14.4864 7.59209 13.5721 6.67785C12.6579 5.76361 11.4179 5.25 10.125 5.25ZM18.6555 22.7175C19.4625 23.0475 20.478 23.25 21.75 23.25C24.5715 23.25 26.1315 22.248 26.9535 21.099C27.3824 20.496 27.6512 19.7942 27.735 19.059C27.7425 18.9907 27.7475 18.9222 27.75 18.8535V18.75C27.75 18.4545 27.6918 18.1619 27.5787 17.889C27.4657 17.616 27.2999 17.3679 27.091 17.159C26.8821 16.9501 26.634 16.7843 26.361 16.6713C26.0881 16.5582 25.7955 16.5 25.5 16.5H18.555C18.915 16.935 19.185 17.4435 19.3425 18H25.5C25.6989 18 25.8897 18.079 26.0303 18.2197C26.171 18.3603 26.25 18.5511 26.25 18.75V18.831L26.2425 18.906C26.1851 19.3816 26.0097 19.8353 25.7325 20.226C25.242 20.9145 24.177 21.75 21.75 21.75C20.652 21.75 19.833 21.579 19.2195 21.3285C19.0965 21.7485 18.918 22.2225 18.6555 22.7175ZM2.25 19.5C2.25 18.7044 2.56607 17.9413 3.12868 17.3787C3.69129 16.8161 4.45435 16.5 5.25 16.5H15C15.7956 16.5 16.5587 16.8161 17.1213 17.3787C17.6839 17.9413 18 18.7044 18 19.5V19.626C18 19.641 18 19.6605 17.997 19.686C17.9788 19.983 17.9361 20.278 17.8695 20.568C17.742 21.12 17.4885 21.858 16.977 22.599C15.9255 24.12 13.8945 25.5 10.125 25.5C6.3555 25.5 4.3245 24.12 3.273 22.599C2.71924 21.7924 2.37395 20.8611 2.268 19.8885C2.25904 19.8012 2.25303 19.7137 2.25 19.626V19.5ZM3.75 19.59V19.617L3.7605 19.7415C3.84178 20.4606 4.09828 21.1487 4.5075 21.7455C5.238 22.8015 6.7695 24 10.125 24C13.4805 24 15.012 22.8015 15.7425 21.7455C16.1518 21.1487 16.4083 20.4606 16.4895 19.7415C16.4944 19.7002 16.4974 19.6586 16.4985 19.617L16.5 19.5915V19.5C16.5 19.1022 16.342 18.7206 16.0607 18.4393C15.7794 18.158 15.3978 18 15 18H5.25C4.85218 18 4.47064 18.158 4.18934 18.4393C3.90804 18.7206 3.75 19.1022 3.75 19.5V19.59ZM19.5 11.25C19.5 10.6533 19.7371 10.081 20.159 9.65901C20.581 9.23705 21.1533 9 21.75 9C22.3467 9 22.919 9.23705 23.341 9.65901C23.7629 10.081 24 10.6533 24 11.25C24 11.8467 23.7629 12.419 23.341 12.841C22.919 13.2629 22.3467 13.5 21.75 13.5C21.1533 13.5 20.581 13.2629 20.159 12.841C19.7371 12.419 19.5 11.8467 19.5 11.25ZM21.75 7.5C20.7554 7.5 19.8016 7.89509 19.0984 8.59835C18.3951 9.30161 18 10.2554 18 11.25C18 12.2446 18.3951 13.1984 19.0984 13.9017C19.8016 14.6049 20.7554 15 21.75 15C22.7446 15 23.6984 14.6049 24.4016 13.9017C25.1049 13.1984 25.5 12.2446 25.5 11.25C25.5 10.2554 25.1049 9.30161 24.4016 8.59835C23.6984 7.89509 22.7446 7.5 21.75 7.5Z" fill="black"/>
</svg>
