<svg width="28" height="28" viewBox="0 0 28 28" fill="none" xmlns="http://www.w3.org/2000/svg">
<path d="M3 9.5C3 8.90905 3.1164 8.32389 3.34254 7.77792C3.56869 7.23196 3.90016 6.73588 4.31802 6.31802C4.73588 5.90016 5.23196 5.56869 5.77792 5.34254C6.32389 5.1164 6.90905 5 7.5 5C8.09095 5 8.67611 5.1164 9.22208 5.34254C9.76804 5.56869 10.2641 5.90016 10.682 6.31802C11.0998 6.73588 11.4313 7.23196 11.6575 7.77792C11.8836 8.32389 12 8.90905 12 9.5C12 10.6935 11.5259 11.8381 10.682 12.682C9.83807 13.5259 8.69347 14 7.5 14C6.30653 14 5.16193 13.5259 4.31802 12.682C3.47411 11.8381 3 10.6935 3 9.5ZM7.5 6.5C7.10603 6.5 6.71593 6.5776 6.35195 6.72836C5.98797 6.87913 5.65726 7.1001 5.37868 7.37868C5.1001 7.65726 4.87913 7.98797 4.72836 8.35195C4.5776 8.71593 4.5 9.10603 4.5 9.5C4.5 9.89397 4.5776 10.2841 4.72836 10.6481C4.87913 11.012 5.1001 11.3427 5.37868 11.6213C5.65726 11.8999 5.98797 12.1209 6.35195 12.2716C6.71593 12.4224 7.10603 12.5 7.5 12.5C8.29565 12.5 9.05871 12.1839 9.62132 11.6213C10.1839 11.0587 10.5 10.2956 10.5 9.5C10.5 8.70435 10.1839 7.94129 9.62132 7.37868C9.05871 6.81607 8.29565 6.5 7.5 6.5ZM14.5 10.5C14.5 10.0404 14.5905 9.58525 14.7664 9.16061C14.9423 8.73597 15.2001 8.35013 15.5251 8.02513C15.8501 7.70012 16.236 7.44231 16.6606 7.26642C17.0852 7.09053 17.5404 7 18 7C18.4596 7 18.9148 7.09053 19.3394 7.26642C19.764 7.44231 20.1499 7.70012 20.4749 8.02513C20.7999 8.35013 21.0577 8.73597 21.2336 9.16061C21.4095 9.58525 21.5 10.0404 21.5 10.5C21.5 11.4283 21.1313 12.3185 20.4749 12.9749C19.8185 13.6313 18.9283 14 18 14C17.0717 14 16.1815 13.6313 15.5251 12.9749C14.8687 12.3185 14.5 11.4283 14.5 10.5ZM18 8.5C17.4696 8.5 16.9609 8.71071 16.5858 9.08579C16.2107 9.46086 16 9.96957 16 10.5C16 11.0304 16.2107 11.5391 16.5858 11.9142C16.9609 12.2893 17.4696 12.5 18 12.5C18.5304 12.5 19.0391 12.2893 19.4142 11.9142C19.7893 11.5391 20 11.0304 20 10.5C20 9.96957 19.7893 9.46086 19.4142 9.08579C19.0391 8.71071 18.5304 8.5 18 8.5ZM0 18.25C0 17.6533 0.237053 17.081 0.65901 16.659C1.08097 16.2371 1.65326 16 2.25 16H12.75C12.986 16 13.214 16.036 13.428 16.104C13.2572 16.3001 13.1325 16.5319 13.0629 16.7825C12.9934 17.033 12.9808 17.2959 13.026 17.552C12.9381 17.5174 12.8445 17.4998 12.75 17.5H2.25C2.05109 17.5 1.86032 17.579 1.71967 17.7197C1.57902 17.8603 1.5 18.0511 1.5 18.25V18.763L1.509 18.863C1.519 18.957 1.539 19.098 1.583 19.271C1.69959 19.7335 1.90694 20.1683 2.193 20.55C2.867 21.447 4.308 22.5 7.5 22.5C10.692 22.5 12.133 21.447 12.806 20.55C12.878 20.454 12.942 20.359 13 20.264C13.0023 20.5525 13.076 20.8359 13.2143 21.0891C13.3527 21.3422 13.5515 21.5572 13.793 21.715C13.7259 21.7934 13.6566 21.8697 13.585 21.944C13.536 21.988 13.49 22.034 13.446 22.083C12.332 23.155 10.489 24 7.5 24C3.942 24 2.008 22.803 0.994 21.45C0.587455 20.9086 0.293039 20.2916 0.128 19.635C0.0627078 19.3736 0.0208753 19.1069 0.00300002 18.838C0.0017538 18.819 0.000753695 18.8 0 18.781V18.25ZM14.75 16.5C14.5511 16.5 14.3603 16.579 14.2197 16.7197C14.079 16.8603 14 17.0511 14 17.25C14 17.4489 14.079 17.6397 14.2197 17.7803C14.3603 17.921 14.5511 18 14.75 18H23.25C23.4489 18 23.6397 17.921 23.7803 17.7803C23.921 17.6397 24 17.4489 24 17.25C24 17.0511 23.921 16.8603 23.7803 16.7197C23.6397 16.579 23.4489 16.5 23.25 16.5H14.75ZM14.75 19.5C14.5511 19.5 14.3603 19.579 14.2197 19.7197C14.079 19.8603 14 20.0511 14 20.25C14 20.4489 14.079 20.6397 14.2197 20.7803C14.3603 20.921 14.5511 21 14.75 21H23.25C23.4489 21 23.6397 20.921 23.7803 20.7803C23.921 20.6397 24 20.4489 24 20.25C24 20.0511 23.921 19.8603 23.7803 19.7197C23.6397 19.579 23.4489 19.5 23.25 19.5H14.75ZM14.75 22.5C14.5511 22.5 14.3603 22.579 14.2197 22.7197C14.079 22.8603 14 23.0511 14 23.25C14 23.4489 14.079 23.6397 14.2197 23.7803C14.3603 23.921 14.5511 24 14.75 24H23.25C23.4489 24 23.6397 23.921 23.7803 23.7803C23.921 23.6397 24 23.4489 24 23.25C24 23.0511 23.921 22.8603 23.7803 22.7197C23.6397 22.579 23.4489 22.5 23.25 22.5H14.75Z" fill="black"/>
</svg>
