<svg width="50" height="50" viewBox="0 0 50 50" fill="none" xmlns="http://www.w3.org/2000/svg">
<path d="M30.1875 22.625C30.8852 21.6645 31.3038 20.5297 31.3968 19.3462C31.4899 18.1627 31.2539 16.9765 30.7149 15.9187C30.1759 14.8609 29.3549 13.9728 28.3426 13.3525C27.3304 12.7323 26.1663 12.404 24.9792 12.404C23.792 12.404 22.6279 12.7323 21.6157 13.3525C20.6034 13.9728 19.7824 14.8609 19.2434 15.9187C18.7044 16.9765 18.4684 18.1627 18.5615 19.3462C18.6546 20.5297 19.0731 21.6645 19.7708 22.625C18.8858 23.189 18.0978 23.8925 17.4375 24.7083C17.2651 24.9313 17.1384 25.186 17.0645 25.458C16.9906 25.7299 16.9709 26.0138 17.0067 26.2933C17.0425 26.5729 17.133 26.8426 17.2731 27.0872C17.4131 27.3318 17.5999 27.5463 17.8229 27.7187C18.0459 27.8911 18.3006 28.0178 18.5726 28.0917C18.8445 28.1656 19.1284 28.1853 19.4079 28.1495C19.6875 28.1137 19.9572 28.0232 20.2018 27.8831C20.4464 27.7431 20.661 27.5563 20.8333 27.3333C21.3421 26.6866 21.9906 26.1632 22.7301 25.8025C23.4697 25.4417 24.2813 25.2528 25.1042 25.25C25.927 25.2528 26.7386 25.4417 27.4782 25.8025C28.2178 26.1632 28.8662 26.6866 29.375 27.3333C29.5711 27.575 29.8188 27.7697 30.1 27.9031C30.3812 28.0365 30.6888 28.1052 31 28.1041C31.3906 28.1023 31.7727 27.9908 32.1029 27.7822C32.4332 27.5737 32.6981 27.2765 32.8675 26.9246C33.0369 26.5727 33.104 26.1803 33.0612 25.7921C33.0183 25.4039 32.8671 25.0355 32.625 24.7291C31.935 23.8972 31.1112 23.1861 30.1875 22.625ZM25 21.1041C24.5545 21.1038 24.1189 20.9725 23.7475 20.7264C23.3761 20.4804 23.0852 20.1306 22.9112 19.7205C22.7371 19.3103 22.6875 18.8581 22.7686 18.42C22.8497 17.982 23.0578 17.5774 23.3671 17.2568C23.6764 16.9361 24.0732 16.7135 24.5081 16.6167C24.943 16.5199 25.3967 16.5532 25.8128 16.7123C26.2289 16.8715 26.589 17.1495 26.8483 17.5119C27.1075 17.8742 27.2545 18.3047 27.2708 18.75C27.282 19.0551 27.2316 19.3594 27.1225 19.6446C27.0134 19.9298 26.8479 20.19 26.6359 20.4098C26.4239 20.6296 26.1698 20.8044 25.8887 20.9236C25.6076 21.0429 25.3054 21.1043 25 21.1041ZM42.625 20.0625C42.3325 17.0185 41.2567 14.1022 39.5025 11.5975C37.7482 9.09277 35.3752 7.08502 32.6146 5.76973C29.8539 4.45444 26.7997 3.87645 23.7494 4.09204C20.6991 4.30763 17.7565 5.30945 15.2083 6.99995C13.0192 8.4638 11.1814 10.3943 9.82696 12.6528C8.47257 14.9114 7.63519 17.4418 7.375 20.0625C7.11975 22.6659 7.44723 25.2935 8.33368 27.7547C9.22014 30.2159 10.6433 32.4488 12.5 34.2916L23.5417 45.3541C23.7353 45.5494 23.9658 45.7044 24.2196 45.8101C24.4735 45.9159 24.7458 45.9704 25.0208 45.9704C25.2959 45.9704 25.5682 45.9159 25.822 45.8101C26.0759 45.7044 26.3063 45.5494 26.5 45.3541L37.5 34.2916C39.3567 32.4488 40.7799 30.2159 41.6663 27.7547C42.5528 25.2935 42.8802 22.6659 42.625 20.0625ZM34.5833 31.3541L25 40.9375L15.4167 31.3541C14.0044 29.9417 12.9225 28.234 12.2489 26.3536C11.5753 24.4733 11.3266 22.467 11.5208 20.4791C11.7163 18.4606 12.3578 16.5107 13.3991 14.7705C14.4404 13.0302 15.8553 11.5431 17.5417 10.4166C19.752 8.94836 22.3465 8.16515 25 8.16515C27.6535 8.16515 30.248 8.94836 32.4583 10.4166C34.1396 11.5387 35.5514 13.0193 36.5924 14.7519C37.6334 16.4845 38.2778 18.4262 38.4792 20.4375C38.6797 22.4321 38.4342 24.4464 37.7604 26.3344C37.0866 28.2225 36.0014 29.9371 34.5833 31.3541Z" fill="#4BAD48"/>
</svg>
