<svg xmlns="http://www.w3.org/2000/svg" viewBox="0 0 517.78 122.09"><defs><style>.cls-1{fill:#fff;}.cls-2{fill:#34b1e8;}</style></defs><title>Asset 1</title><g id="Layer_2" data-name="Layer 2"><g id="Layer_1-2" data-name="Layer 1"><path class="cls-1" d="M2.31,6.94a12,12,0,0,1,4.46-5Q9.75,0,15,0H42.48A75.1,75.1,0,0,1,60.25,2.23,35.83,35.83,0,0,1,76,10.41l.66.5A44.07,44.07,0,0,1,85,20.83,52.15,52.15,0,0,1,90.17,32.4a69.05,69.05,0,0,1,2.64,12.48,110.1,110.1,0,0,1,.74,12.81,87.93,87.93,0,0,1-3,23.8,48.17,48.17,0,0,1-9.26,18.1,41.15,41.15,0,0,1-15.87,11.57q-9.59,4.05-23,4.05H15q-8.27,0-11.65-5T0,97.53L.88,11.35c1.54,3,9.61,13.37,11.87,14.91s5.73,0,8.32.67,2.56-.05,5.26,0,0-.29,2.49-.29L28.76,87H42.48q6.78,0,11.07-2.4a18.12,18.12,0,0,0,6.78-6.45,26.18,26.18,0,0,0,3.39-9.34,65.49,65.49,0,0,0,.91-11.08,67,67,0,0,0-.91-11.16,26.27,26.27,0,0,0-3.39-9.42,18.17,18.17,0,0,0-6.78-6.45,22.62,22.62,0,0,0-11.07-2.4H14.38a12.33,12.33,0,0,1-6.86-2,14.42,14.42,0,0,1-4.79-5,15.79,15.79,0,0,1-2-6.86A14.3,14.3,0,0,1,2.31,6.94Z"/><path class="cls-1" d="M148.38,94.56a15.14,15.14,0,0,0,9.42,3.14,14.53,14.53,0,0,0,8.76-2.89,15.51,15.51,0,0,0,5.62-8.35q.33-.83.91-2.64t1.41-4.22q.82-2.39,1.82-5.21t2-5.46l5-14.22q4.63-13.55,13.55-13.56a13.47,13.47,0,0,1,6.2,1.57,11.35,11.35,0,0,1,4.71,4.38,17.93,17.93,0,0,1,1.82,7.44,26.78,26.78,0,0,1-.58,5.87,30.18,30.18,0,0,1-1.9,5.54l-2.81,6.94q-1.33,3.14-2.81,6.94l-3,7.6q-1.33,3-2.4,5.79l-1.9,5q-.66,1.33-1.16,2.48a19.43,19.43,0,0,0-.83,2.31,34.59,34.59,0,0,1-7.52,11.65Q180,119.36,172,119.36a17.4,17.4,0,0,1-11.74-4q-5-3.63-8.43-12.4l-1.49-3.47Z"/><path class="cls-1" d="M229.11,41.25q7.44,0,10.58,4.46t3.14,11.9v45.29q0,7.44-3.14,11.9t-10.58,4.46q-7.44,0-10.58-4.46t-3.14-11.9V57.62q0-7.44,3.14-11.9T229.11,41.25Z"/><path class="cls-1" d="M259.86,94.19a23.49,23.49,0,0,1,3,.33q2.15.33,5,.83t6.2.83a62.76,62.76,0,0,0,6.28.33,20.46,20.46,0,0,0,6.78-1q2.81-1,2.81-3.47,0-2-2.31-2.81a30.73,30.73,0,0,0-4.88-1.49l-6.2-1.41q-3.31-.74-6.86-1.82a43.07,43.07,0,0,1-6.86-2.73,26.09,26.09,0,0,1,2.31-5.87,19.09,19.09,0,0,1,3.8-4.88,15.76,15.76,0,0,1,7.36-4.22,17.8,17.8,0,0,1,8.51-.08q4.46,1,10.08,2.4a40.36,40.36,0,0,1,10.58,4.3,27,27,0,0,1,8.43,7.77q3.47,4.88,3.47,12.81a21,21,0,0,1-9.17,18.35,32.1,32.1,0,0,1-9.59,4.55A57,57,0,0,1,287.46,119a75.5,75.5,0,0,1-15-.17,68.51,68.51,0,0,1-12.65-2.48,17.56,17.56,0,0,1-7.36-4,9,9,0,0,1-2.89-4.88,12,12,0,0,1,0-5.62,10.52,10.52,0,0,1,2.15-4.22A9,9,0,0,1,255.39,95,12.33,12.33,0,0,1,259.86,94.19Zm-9.92-32.89A21.72,21.72,0,0,1,260.35,41.7a30.92,30.92,0,0,1,10.58-4.05,62.42,62.42,0,0,1,11.9-1.16q2.31,0,6.69.33a90.66,90.66,0,0,1,9,1.16A44.87,44.87,0,0,1,307,40.3q3.8,1.49,5.12,3.8a12.73,12.73,0,0,1,2,6.12,12.64,12.64,0,0,1-.58,3.47,10.65,10.65,0,0,1-2,3.72A11.55,11.55,0,0,1,308,60.3a11,11,0,0,1-5.29,1.16,26.36,26.36,0,0,1-3.88-.41l-5.7-.91q-3.14-.5-6.28-.83a24,24,0,0,0-5.62,0c-3.09.41-6.4.5-7,2.23a2.22,2.22,0,0,0,.08,1.51c1.11,3,7.12,2.73,14.92,4.35,5.65,1.18,11.59,3.2,11.48,3.87s-3.94.66-21.81-1.34h0l-2.3,2.3-2.3,2.3-2.3,2.3a26.94,26.94,0,0,0-4.59,6.89A28.06,28.06,0,0,1,256,76.93a23.68,23.68,0,0,1-3.07-3.74Q249.94,68.73,249.94,61.29Z"/><path class="cls-1" d="M341,38.81q7.44,0,10.58,4.46t3.14,11.9v45.29q0,7.44-3.14,11.9T341,116.84q-7.44,0-10.58-4.46t-3.14-11.9V55.18q0-7.44,3.14-11.9T341,38.81Z"/><path class="cls-2" d="M149,90.78c6.59,2.52,16.17-1.34,18.62-7.08,1.37-3.21.29-6.47-.07-7.62-2.17-6.93-3.83-19.07-2-42a39.71,39.71,0,0,0-19.74,1.81c-3.83,1.4-7.89,2.89-10.09,6.71-2.47,4.3-1.19,9.14.45,14.95C144.85,88.55,147,90,149,90.78Z"/><path class="cls-1" d="M115.22,37.46q7.44,0,10.58,4.46t3.14,11.9V99.12q0,7.44-3.14,11.9t-10.58,4.46q-7.44,0-10.58-4.46t-3.14-11.9V53.83q0-7.44,3.14-11.9T115.22,37.46Z"/><path class="cls-2" d="M396.15,66.79h27.15V48.13a23,23,0,0,1,.56-5.17,12.22,12.22,0,0,1,1.8-4.23,8.82,8.82,0,0,1,3.29-2.86,13.07,13.07,0,0,1,10.29,0,8.84,8.84,0,0,1,3.29,2.85,12.19,12.19,0,0,1,1.8,4.22,22.85,22.85,0,0,1,.56,5.14V66.92a21.53,21.53,0,0,1-1.67,8.68,20.78,20.78,0,0,1-4.53,6.63,19.34,19.34,0,0,1-6.82,4.28A24.17,24.17,0,0,1,423.31,88H396v20.08a22.85,22.85,0,0,1-.56,5.15,12.18,12.18,0,0,1-1.8,4.21,8.8,8.8,0,0,1-3.29,2.85,13.1,13.1,0,0,1-10.29,0,8.8,8.8,0,0,1-3.29-2.84,12.09,12.09,0,0,1-1.8-4.21,22.73,22.73,0,0,1-.56-5.13V87.82a21.43,21.43,0,0,1,1.67-8.66,20.21,20.21,0,0,1,4.59-6.62,19.91,19.91,0,0,1,6.88-4.27A24.2,24.2,0,0,1,396.15,66.79Zm-19-28.51q2.73-3.35,8.06-3.35a11,11,0,0,1,6.57,1.86l1.49,1.49Q396,41.75,396,48.2V61.34q-8.55-.12-13.82,4.29a25.88,25.88,0,0,0-7.75,11.27V48.22Q374.46,41.88,377.19,38.28Zm46.12,55q8.55.13,13.89-4.2A24.21,24.21,0,0,0,444.88,78v30a22.8,22.8,0,0,1-.56,5.14,12.16,12.16,0,0,1-1.8,4.21,8.81,8.81,0,0,1-3.29,2.85,11.2,11.2,0,0,1-5.15,1.05,11,11,0,0,1-6.57-1.86L426,117.87q-2.73-3.1-2.73-9.92Z"/><path class="cls-2" d="M455.42,38q2.73-3.08,8.18-3.08h21.08a49.16,49.16,0,0,1,13.51,1.74,27.89,27.89,0,0,1,10.48,5.46,24.07,24.07,0,0,1,6.76,9.55,37.39,37.39,0,0,1,2.36,14,37.1,37.1,0,0,1-1,8.86,30.15,30.15,0,0,1-2.67,7.13,22.52,22.52,0,0,1-3.84,5.27,17.18,17.18,0,0,1-4.4,3.29,50,50,0,0,1-21.2,4.46H473.89v13.39q0,6.32-2.6,9.79t-8.18,3.47q-5.58,0-8.18-3.48t-2.6-9.81V53.67a13.55,13.55,0,0,0,4.28,5.11A17.07,17.07,0,0,0,462,61.27a25.87,25.87,0,0,0,6,.81q3,.06,5.89.06V75.22h10.79q6.57,0,8.93-2.56A10,10,0,0,0,496,65.62a9.92,9.92,0,0,0-2.17-6.74q-2.17-2.5-8.12-2.75H463.1a9.46,9.46,0,0,1-5.64-1.73,10.5,10.5,0,0,1-3.6-4.44,12.22,12.22,0,0,1-.93-5.92A11,11,0,0,1,455.42,38Zm30.75,59.78a47.92,47.92,0,0,0,6,.37,42.67,42.67,0,0,0,16-3l1.24,2.48q.74,1.49,1.36,3a17.43,17.43,0,0,1,.87,1.74q.37.87.87,1.86a19.92,19.92,0,0,1,1.92,7.5,11.15,11.15,0,0,1-1.18,5.58,8.78,8.78,0,0,1-3.41,3.53,9.47,9.47,0,0,1-4.77,1.24,11.42,11.42,0,0,1-6-1.8,14.34,14.34,0,0,1-5.08-5.76q-1-2.11-1.8-3.91t-1.67-3.53Z"/></g></g></svg>