<svg width="30" height="34" viewBox="0 0 30 34" fill="none" xmlns="http://www.w3.org/2000/svg">
<path d="M28.3333 10.3333L18.3333 1.56668C17.4166 0.746752 16.2299 0.293457 15 0.293457C13.7701 0.293457 12.5834 0.746752 11.6667 1.56668L1.66667 10.3333C1.13729 10.8068 0.714839 11.3876 0.427459 12.0371C0.140078 12.6866 -0.00564019 13.3898 5.40231e-06 14.1V28.6667C5.40231e-06 29.9928 0.52679 31.2645 1.46447 32.2022C2.40215 33.1399 3.67392 33.6667 5.00001 33.6667H25C26.3261 33.6667 27.5979 33.1399 28.5355 32.2022C29.4732 31.2645 30 29.9928 30 28.6667V14.0833C30.0033 13.3759 29.8564 12.6759 29.5691 12.0295C29.2818 11.383 28.8606 10.8049 28.3333 10.3333ZM18.3333 30.3333H11.6667V22C11.6667 21.558 11.8423 21.1341 12.1548 20.8215C12.4674 20.5089 12.8913 20.3333 13.3333 20.3333H16.6667C17.1087 20.3333 17.5326 20.5089 17.8452 20.8215C18.1577 21.1341 18.3333 21.558 18.3333 22V30.3333ZM26.6667 28.6667C26.6667 29.1087 26.4911 29.5326 26.1785 29.8452C25.866 30.1577 25.442 30.3333 25 30.3333H21.6667V22C21.6667 20.6739 21.1399 19.4022 20.2022 18.4645C19.2645 17.5268 17.9928 17 16.6667 17H13.3333C12.0073 17 10.7355 17.5268 9.7978 18.4645C8.86012 19.4022 8.33334 20.6739 8.33334 22V30.3333H5.00001C4.55798 30.3333 4.13406 30.1577 3.82149 29.8452C3.50893 29.5326 3.33334 29.1087 3.33334 28.6667V14.0833C3.33364 13.8467 3.38433 13.6128 3.48203 13.3973C3.57974 13.1818 3.72222 12.9895 3.90001 12.8333L13.9 4.08334C14.2042 3.81614 14.5952 3.66879 15 3.66879C15.4049 3.66879 15.7959 3.81614 16.1 4.08334L26.1 12.8333C26.2778 12.9895 26.4203 13.1818 26.518 13.3973C26.6157 13.6128 26.6664 13.8467 26.6667 14.0833V28.6667Z" fill="#FF9500"/>
</svg>
