<svg width="16782" height="3939" viewBox="0 0 16782 3939" fill="none" xmlns="http://www.w3.org/2000/svg">
<g clip-path="url(#clip0_1252_875)">
<path d="M12675.7 2049.91H13571.2V1460.49C13570.8 1405.62 13577 1350.89 13589.6 1297.35C13600.4 1249.67 13620.6 1204.38 13649 1163.88C13676.7 1125.59 13714 1094.56 13757.5 1073.64C13810.3 1049.78 13868.3 1038.32 13926.7 1040.19C13985.3 1038.19 14043.5 1049.55 14096.6 1073.32C14140 1094.18 14177.3 1125.09 14205.1 1163.25C14233.5 1203.64 14253.6 1248.83 14264.4 1296.41C14277 1349.63 14283.2 1404.04 14282.9 1458.59V2053.38C14284.5 2147.34 14265.8 2240.6 14227.8 2327.26C14192.7 2405.63 14142 2476.69 14078.4 2536.46C14014.1 2596.12 13937.3 2642.13 13853.2 2671.51C13762.9 2703.33 13667.4 2719.26 13571.2 2718.53H12671.4V3352.13C12671.6 3406.8 12665.3 3461.32 12652.6 3514.63C12641.8 3562.1 12621.6 3607.18 12593.2 3647.47C12565.5 3685.66 12528.2 3716.59 12484.7 3737.4C12431.7 3761.2 12373.4 3772.55 12314.9 3770.53C12256.3 3772.54 12198.1 3761.18 12145 3737.4C12101.6 3716.67 12064.3 3685.86 12036.5 3647.78C12008 3607.52 11987.9 3562.44 11977.1 3514.94C11965 3461.78 11959.3 3407.48 11960 3353.07V2712.53C11958.3 2618.78 11977.1 2525.73 12015.1 2439.28C12050.4 2360.64 12101.8 2289.6 12166.4 2230.39C12231.6 2171.09 12308.9 2125.23 12393.4 2095.66C12483.8 2064.25 12579.5 2048.75 12675.7 2049.91ZM12050 1150C12109.8 1079.32 12198.4 1043.98 12315.9 1043.98C12392.8 1041.24 12468.7 1062.02 12532.5 1103.3L12581.7 1150.31C12641.7 1223.31 12671.7 1327.65 12671.7 1463.33V1877.31C12483.1 1874.79 12331 1920.01 12215.6 2012.99C12098.6 2107.36 12010.4 2230.08 11960 2368.28V1463.33C11960 1330.17 11990 1225.73 12050 1150ZM13571.2 2885.45C13759.2 2888.18 13911.9 2844.01 14029.3 2752.92C14146.6 2661.68 14234.5 2540.44 14282.6 2403.31V3349.92C14282.9 3404.47 14276.7 3458.89 14264.1 3512.1C14253.3 3559.58 14233.1 3604.66 14204.7 3644.94C14177 3683.13 14139.7 3714.05 14096.2 3734.87C14043.2 3758.65 13984.9 3770 13926.4 3768C13849.5 3770.92 13773.6 3750.37 13709.7 3709.31L13660.5 3662.3C13600.5 3597.09 13570.5 3492.75 13570.5 3349.29L13571.2 2885.45Z" fill="#34B1E8"/>
<path d="M14671 1141.48C14730 1076.69 14819.5 1044.19 14939.5 1043.98H15634.8C15785.2 1042.41 15935.2 1060.89 16080.4 1098.88C16207.1 1132.03 16325 1190.78 16426 1271.16C16525.4 1352.34 16602.4 1455.74 16650 1572.19C16705.2 1713.33 16731.6 1863.28 16727.8 2013.94C16728.6 2108.05 16717.5 2201.92 16694.8 2293.5C16675.5 2371.75 16645.9 2447.35 16606.8 2518.48C16573.2 2579.49 16530.5 2635.51 16480.1 2684.77C16437.9 2726.59 16388.9 2761.65 16335 2788.58C16115.5 2883.81 15876.8 2931.85 15635.8 2929.31H15278.9V3352.13C15278.9 3485.07 15250.3 3588.04 15193.1 3661.04C15136 3734.03 15046 3770.53 14923.4 3770.53C14800.7 3770.53 14710.7 3733.92 14653.6 3660.72C14596.4 3587.52 14567.8 3484.34 14567.8 3351.18V1635.29C14599.8 1699.72 14648.1 1755.47 14708.3 1797.48C14763 1833.64 14824 1860.24 14888.4 1876.05C14953.1 1891.95 15019.5 1900.53 15086.3 1901.61C15152.2 1902.87 15217 1903.5 15280.5 1903.5V2315.59H15636.4C15780.9 2315.59 15879.1 2288.66 15931 2234.81C15985.8 2172.99 16013.7 2093.32 16008.8 2012.36C16013.1 1935.46 15987.6 1859.74 15937.2 1799.69C15889.5 1747.1 15800.2 1718.17 15669.4 1712.92H14923C14856.6 1714.25 14791.4 1695.23 14737 1658.64C14684.6 1623.35 14643.5 1574.85 14618.3 1518.54C14592 1459.68 14581.5 1395.48 14587.6 1331.75C14594.6 1261.7 14623.7 1195.34 14671 1141.48ZM15683.6 3028.07C15749.2 3035.92 15815.3 3039.82 15881.5 3039.74C16062.1 3040.88 16241.3 3008.74 16409.2 2945.08L16450.1 3023.34C16466.4 3054.68 16481.3 3086.23 16494.9 3118C16505.6 3135.77 16515.2 3154.1 16523.6 3172.9C16531.8 3191.2 16541.3 3210.77 16552.3 3231.59C16589.4 3305.75 16610.9 3386.16 16615.7 3468.24C16618.9 3529.17 16605.5 3589.84 16576.7 3644.31C16550.3 3690.43 16510.8 3728.41 16462.6 3753.8C16414.7 3779.9 16360.4 3793.4 16305.3 3792.93C16235.1 3792.01 16166.6 3772.34 16107.4 3736.13C16035.3 3691.25 15977.4 3628.41 15939.9 3554.38C15917.9 3510 15898.1 3468.87 15880.5 3431.01C15862.9 3393.15 15844.5 3356.44 15825.4 3320.89L15683.6 3028.07Z" fill="#34B1E8"/>
</g>
<rect x="3189" y="1200" width="896" height="2522" rx="448" fill="white"/>
<rect x="6902" y="1200" width="896" height="2522" rx="448" fill="white"/>
<path d="M9847.07 1146.3C10043 1171.23 10186 1343.72 10174.3 1540.86C10161.6 1754.2 9973.62 1913.9 9761.04 1891.89L9463.76 1861.11L9205.04 1835.64C9140.64 1829.3 9075.81 1828.46 9011.26 1833.11L8937.26 1847.61L8870.76 1861.11L8342.3 1992.45C8270.92 2010.19 8204.34 1949.91 8214.91 1877.13L8273.99 1470.52C8292.33 1344.31 8378.46 1238.35 8498.26 1194.61L8530.77 1180.48C8633.38 1135.88 8742.71 1108.72 8854.26 1100.11L9013.26 1083.11L9196.26 1083.11L9380.26 1100.11L9755.26 1134.61L9847.07 1146.3Z" fill="white"/>
<path d="M8304.88 1345.7C8411.65 1218.77 8583.61 1167.37 8742.53 1214.88L8798.6 1231.64C8941.53 1274.38 9039.45 1405.86 9039.45 1555.04L9039.45 1799.32C9039.45 1814.69 9028.79 1827.99 9013.79 1831.33L8961.4 1843.01C8950.76 1845.39 8940.74 1849.98 8932 1856.51C8918.85 1866.32 8909.16 1880.07 8904.35 1895.76L8901.35 1905.52C8896.75 1920.51 8897.16 1936.58 8902.53 1951.31C8908.48 1967.62 8920.13 1981.24 8935.33 1989.65L8965.43 2006.28C8970.31 2008.98 8973.48 2013.98 8973.85 2019.54L8984.49 2180.8C8991.51 2287.2 8943.74 2389.83 8857.81 2452.98L8839.81 2466.2C8716.88 2556.54 8549.82 2557.67 8425.67 2469.01L8334.26 2403.75C8285.98 2369.26 8244.22 2326.47 8210.93 2277.35L8205.51 2269.36C8168.06 2214.09 8142.05 2151.87 8129.02 2086.39L8112.26 2002.11L8106.58 1919.84C8103.05 1868.66 8107.42 1817.24 8119.53 1767.39L8148.76 1647.11L8173.04 1566.16C8192.65 1500.82 8225.41 1440.18 8269.32 1387.98L8304.88 1345.7Z" fill="white"/>
<path d="M9467.27 3732.34C9429.52 3732.34 9393.64 3715.89 9369.01 3687.29L9069.91 3340.09C8997.29 3255.79 9008.9 3128.1 9095.54 3058.29C9130.54 3030.08 9174.14 3014.7 9219.08 3014.7L9245.76 3014.7C9275.07 3014.7 9303.68 3005.68 9327.69 2988.87L9330.37 2986.99C9355.22 2969.59 9373.4 2944.25 9381.93 2915.14L9383.44 2909.99C9387.52 2896.04 9388.73 2881.41 9386.99 2866.98C9385.43 2854 9381.51 2841.42 9375.42 2829.85L9356.04 2793.01C9351.59 2784.54 9349.26 2775.11 9349.26 2765.55C9349.26 2735.64 9371.64 2710.47 9401.33 2706.97L9419.74 2704.8C9456.44 2700.47 9485.37 2671.53 9489.68 2634.83L9502.95 2521.76C9516.81 2403.71 9620.45 2317.04 9739.09 2324.27L9841.57 2330.51C9957.32 2337.57 10061 2404.4 10115.3 2506.88L10220.5 2705.59C10258.7 2777.66 10278.6 2857.99 10278.6 2939.55L10278.6 2943.85L10278.6 3046.35L10274.9 3109.49C10272.4 3150.79 10263.2 3191.41 10247.7 3229.75C10240.7 3247.13 10232.4 3263.96 10222.8 3280.11L10155.2 3395.02C10110.2 3458.68 10057.2 3517.04 9998.13 3567.85L9966.63 3591.29C9914.65 3629.97 9857.39 3660.99 9796.59 3683.4C9759.68 3697.01 9721.66 3707.37 9682.96 3714.37L9663.45 3717.9C9610.34 3727.51 9556.48 3732.34 9502.51 3732.34L9467.27 3732.34Z" fill="white"/>
<path d="M8209.07 3581.36C8108.97 3504.5 8057.57 3380 8074.29 3254.91L8079.12 3218.79C8101.54 3051.16 8252.39 2931.2 8420.76 2947.11L8618.76 2966.61L8838.26 2996.11L9313.26 3007.61L9554.86 3037.55C9810.31 3069.19 9945.47 3356.36 9807.07 3573.38C9743.81 3672.57 9634.99 3733.36 9517.37 3735.23L8833.26 3746.11L8790.83 3743.44C8660.36 3735.24 8530.85 3715.72 8403.76 3685.11L8367.65 3673.19C8322.38 3658.25 8279.95 3635.78 8242.13 3606.75L8209.07 3581.36Z" fill="white"/>
<path d="M10224.2 2594.8C10260.3 2660.28 10279.3 2733.83 10279.3 2808.59L10279.3 2964.61C10273.1 3038.28 10199.8 3086.86 10129.6 3063.71L9172.26 2748.11L8559.15 2533.48C8523.3 2520.93 8488.67 2505.13 8455.69 2486.28L8404.85 2457.23C8169.72 2322.85 8230.04 1968.23 8496.37 1919.14C8534.88 1912.04 8574.41 1912.8 8612.62 1921.36L9466.49 2112.78C9491.16 2118.31 9515.37 2125.7 9538.92 2134.89L9840.77 2252.71C9888.15 2271.2 9932.44 2296.82 9972.09 2328.67L10057.9 2397.57C10084.4 2418.88 10108.7 2442.83 10130.3 2469.07L10177.9 2526.74C10195.5 2547.94 10210.9 2570.73 10224.2 2594.8Z" fill="white"/>
<path d="M10546 1648C10546 1400.58 10746.6 1200 10994 1200C11241.4 1200 11442 1400.58 11442 1648V3274C11442 3521.42 11241.4 3722 10994 3722C10746.6 3722 10546 3521.42 10546 3274V1648Z" fill="white"/>
<path d="M5962.83 1500.61C6047.65 1275.3 6307.58 1171.4 6524.34 1276.18C6716.04 1368.84 6804.76 1592.95 6728.43 1791.72L6122.56 3369.36C6040.04 3584.25 5821.47 3715.03 5593.1 3686.16L5532.12 3678.46C5491.13 3673.28 5451.69 3659.56 5416.33 3638.2C5294.41 3564.54 5242.37 3414.39 5292.56 3281.07L5962.83 1500.61Z" fill="white"/>
<path d="M4962.93 3004.71C5029.44 3022.74 5099.14 3025.61 5166.9 3013.11C5246.85 2998.37 5321.46 2962.71 5383.16 2909.78L5444.15 2857.45C5450.95 2851.61 5456.52 2844.46 5460.53 2836.44C5489.19 2778.96 5574.43 2790.59 5586.65 2853.65L5745.96 3676.1L5677.55 3690.24C5644.24 3697.13 5610.32 3700.6 5576.31 3700.6L5475.64 3700.6C5377.06 3700.6 5280.67 3671.46 5198.61 3616.84L5143.18 3579.95C5064.33 3527.46 5002 3453.66 4963.46 3367.13L4779.96 2955.1L4962.93 3004.71Z" fill="white"/>
<path d="M4347.12 1625C4316.59 1527.64 4320.09 1422.79 4357.03 1327.67C4398.12 1221.89 4477.69 1135.55 4579.78 1085.99L4633.89 1059.72C4664.19 1045.01 4695.9 1033.4 4728.54 1025.07L4896.57 982.149C4937.01 971.823 4978.57 966.599 5020.3 966.599L5329.96 966.599L5400.96 2434.1C5400.96 2602.88 5290.82 2751.91 5129.46 2801.44L5034.46 2830.6C4868.8 2884.65 4692.37 2785.31 4652.7 2615.63L4637.96 2552.6L4347.12 1625Z" fill="#34B1E8"/>
<path d="M0 418C0 187.145 187.145 0 418 0H958V3722H325.5C135.672 3681.47 0 3513.77 0 3319.66V418Z" fill="white"/>
<path d="M2044 101C2296.51 198.672 2516.25 365.765 2677.85 582.988L2693.23 603.651C2833.83 792.645 2928.73 1011.65 2970.48 1243.48L3002 1418.5C3036.19 1711.29 3032.65 2007.25 2991.45 2299.14L2977.5 2398L2947.14 2581C2886.81 2944.71 2677.21 3266.66 2369 3468.98L2044 3608V101Z" fill="white"/>
<path d="M560 0H1597.3C1988.92 0 2352.15 204.325 2555.5 539L2043.5 1655.5L2007.5 1457.5L1956.5 1282C1871.2 1085.29 1677.25 958 1462.85 958H560V0Z" fill="white"/>
<path d="M742.512 3716.31L1585.74 3714.66C1981.34 3713.88 2358.35 3546.69 2624.5 3254L2493.18 3189.26L2041.61 2105.51L2010.38 2297.92L1965.95 2468.5C1891.93 2658.49 1709.08 2783.75 1505.18 2784.15L740.685 2785.66L742.512 3716.31Z" fill="white"/>
<defs>
<clipPath id="clip0_1252_875">
<rect width="4727" height="2754" fill="white" transform="translate(12055 997)"/>
</clipPath>
</defs>
</svg>
