<svg xmlns="http://www.w3.org/2000/svg" viewBox="0 0 143.32 87.28"><defs><style>.cls-1{fill:#34b1e8;}</style></defs><title>Asset 3</title><g id="Layer_2" data-name="Layer 2"><g id="Layer_1-2" data-name="Layer 1"><path class="cls-1" d="M21.7,32H48.85V13.32a23,23,0,0,1,.56-5.17,12.22,12.22,0,0,1,1.8-4.23,8.82,8.82,0,0,1,3.29-2.86A11.14,11.14,0,0,1,59.63,0a11.2,11.2,0,0,1,5.15,1.05,8.84,8.84,0,0,1,3.29,2.85,12.19,12.19,0,0,1,1.8,4.22,22.85,22.85,0,0,1,.56,5.14V32.11a21.53,21.53,0,0,1-1.67,8.68,20.78,20.78,0,0,1-4.53,6.63A19.34,19.34,0,0,1,57.4,51.7a24.17,24.17,0,0,1-8.55,1.49H21.57V73.27A22.85,22.85,0,0,1,21,78.42a12.18,12.18,0,0,1-1.8,4.21,8.8,8.8,0,0,1-3.29,2.85,11.18,11.18,0,0,1-5.15,1.05,11.19,11.19,0,0,1-5.15-1.05,8.8,8.8,0,0,1-3.29-2.84,12.09,12.09,0,0,1-1.8-4.21A22.73,22.73,0,0,1,0,73.3V53a21.43,21.43,0,0,1,1.67-8.66,20.21,20.21,0,0,1,4.59-6.62,19.91,19.91,0,0,1,6.88-4.27A24.2,24.2,0,0,1,21.7,32ZM2.73,3.48Q5.45.12,10.79.12A11,11,0,0,1,17.36,2l1.49,1.49q2.73,3.47,2.73,9.92V26.53Q13,26.41,7.75,30.83A25.88,25.88,0,0,0,0,42.09V13.41Q0,7.08,2.73,3.48Zm46.12,55q8.55.13,13.89-4.2A24.21,24.21,0,0,0,70.42,43.2v30a22.8,22.8,0,0,1-.56,5.14,12.16,12.16,0,0,1-1.8,4.21,8.81,8.81,0,0,1-3.29,2.85,11.2,11.2,0,0,1-5.15,1.05,11,11,0,0,1-6.57-1.86l-1.49-1.49q-2.73-3.1-2.73-9.92Z"/><path class="cls-1" d="M81,3.21Q83.68.13,89.14.12h21.08a49.16,49.16,0,0,1,13.51,1.74,27.89,27.89,0,0,1,10.48,5.46A24.07,24.07,0,0,1,141,16.86a37.39,37.39,0,0,1,2.36,14,37.1,37.1,0,0,1-1,8.86,30.15,30.15,0,0,1-2.67,7.13,22.52,22.52,0,0,1-3.84,5.27,17.18,17.18,0,0,1-4.4,3.29,50,50,0,0,1-21.2,4.46H99.43V73.27q0,6.32-2.6,9.79t-8.18,3.47q-5.58,0-8.18-3.48t-2.6-9.81V18.86A13.55,13.55,0,0,0,82.13,24a17.07,17.07,0,0,0,5.46,2.49,25.87,25.87,0,0,0,6,.81q3,.06,5.89.06V40.42h10.79q6.57,0,8.93-2.56a10,10,0,0,0,2.36-7.05,9.92,9.92,0,0,0-2.17-6.74q-2.17-2.5-8.12-2.75H88.64A9.46,9.46,0,0,1,83,19.6a10.5,10.5,0,0,1-3.6-4.44,12.22,12.22,0,0,1-.93-5.92A11,11,0,0,1,81,3.21ZM111.7,63a47.92,47.92,0,0,0,6,.37,42.67,42.67,0,0,0,16-3l1.24,2.48q.74,1.49,1.36,3a17.43,17.43,0,0,1,.87,1.74q.37.87.87,1.86a19.92,19.92,0,0,1,1.92,7.5,11.15,11.15,0,0,1-1.18,5.58A8.78,8.78,0,0,1,135.32,86a9.47,9.47,0,0,1-4.77,1.24,11.42,11.42,0,0,1-6-1.8,14.34,14.34,0,0,1-5.08-5.76q-1-2.11-1.8-3.91T116,72.28Z"/></g></g></svg>