<svg width="70" height="70" viewBox="0 0 70 70" fill="none" xmlns="http://www.w3.org/2000/svg">
<g clip-path="url(#clip0_615_2008)">
<path d="M1.48222 34.5812C1.48059 40.4625 3.01733 46.2053 5.93943 51.267L1.20276 68.5613L18.9014 63.9207C23.7966 66.5856 29.2813 67.982 34.8549 67.9823H34.8695C53.2689 67.9823 68.2465 53.0102 68.2543 34.6075C68.2579 25.6901 64.7883 17.3048 58.4845 10.9961C52.1818 4.68793 43.7994 1.21208 34.8681 1.20801C16.4666 1.20801 1.49008 16.1793 1.48249 34.5812" fill="url(#paint0_linear_615_2008)"/>
<path d="M0.29031 34.5702C0.288411 40.6632 1.88023 46.6113 4.90651 51.8543L0 69.7686L18.3332 64.9616C23.3846 67.7158 29.072 69.1679 34.8592 69.17H34.8741C53.9336 69.17 69.4492 53.6593 69.4574 34.5979C69.4606 25.3601 65.8662 16.6733 59.3372 10.1386C52.8074 3.60473 44.1252 0.00379845 34.8741 0C15.8113 0 0.298178 15.5085 0.290581 34.5702H0.29031ZM11.2081 50.9513L10.5236 49.8647C7.64601 45.2892 6.12717 40.0017 6.12934 34.5724C6.13558 18.7288 19.0297 5.83876 34.885 5.83876C42.5633 5.84202 49.7792 8.83519 55.2067 14.2659C60.6338 19.6971 63.6202 26.9169 63.6183 34.5957C63.6113 50.4393 50.7169 63.331 34.8741 63.331H34.8627C29.7041 63.3283 24.6449 61.9429 20.2327 59.325L19.1827 58.7023L8.30341 61.5547L11.2081 50.951V50.9513Z" fill="url(#paint1_linear_615_2008)"/>
<path d="M26.2305 20.1177C25.5831 18.6789 24.9018 18.6498 24.2862 18.6246C23.7821 18.6029 23.2058 18.6045 22.6301 18.6045C22.0538 18.6045 21.1175 18.8213 20.326 19.6855C19.5338 20.5504 17.3014 22.6406 17.3014 26.8919C17.3014 31.1435 20.3979 35.252 20.8296 35.8291C21.2618 36.4051 26.8076 45.4086 35.5907 48.8722C42.8902 51.7506 44.3757 51.1781 45.9599 51.0338C47.5444 50.89 51.0726 48.9441 51.7924 46.9263C52.5127 44.9088 52.5127 43.1794 52.2968 42.818C52.0808 42.458 51.5045 42.2417 50.6404 41.8098C49.776 41.3776 45.5277 39.2871 44.7357 38.9987C43.9434 38.7105 43.3674 38.5667 42.7912 39.432C42.2149 40.2958 40.5601 42.2417 40.0557 42.818C39.5519 43.3956 39.0475 43.4675 38.1836 43.0353C37.3189 42.6018 34.536 41.6904 31.2344 38.7469C28.6655 36.4564 26.9313 33.6279 26.4272 32.7627C25.9231 31.8988 26.3732 31.4305 26.8065 30.9999C27.1947 30.6128 27.6709 29.9909 28.1034 29.4865C28.5342 28.9819 28.678 28.6218 28.9662 28.0456C29.2546 27.4687 29.1102 26.9641 28.8945 26.5319C28.678 26.0997 26.9988 21.8264 26.2305 20.1179" fill="white"/>
</g>
<defs>
<linearGradient id="paint0_linear_615_2008" x1="34.7286" y1="68.5613" x2="34.7286" y2="1.20801" gradientUnits="userSpaceOnUse">
<stop stop-color="#1FAF38"/>
<stop offset="1" stop-color="#60D669"/>
</linearGradient>
<linearGradient id="paint1_linear_615_2008" x1="34.7287" y1="69.7686" x2="34.7287" y2="0" gradientUnits="userSpaceOnUse">
<stop stop-color="#F9F9F9"/>
<stop offset="1" stop-color="white"/>
</linearGradient>
<clipPath id="clip0_615_2008">
<rect width="69.4574" height="70" fill="white"/>
</clipPath>
</defs>
</svg>
