<svg xmlns="http://www.w3.org/2000/svg" viewBox="0 0 437.22 333.3"><defs><style>.cls-1{fill:#ff8b66;}.cls-2{fill:#cfd8dc;}.cls-3{fill:#adbec4;}.cls-4{fill:#0c476b;}.cls-5{fill:#0e3944;}.cls-6{fill:#f2a668;}.cls-7{fill:#ffb878;}.cls-8{fill:#f24052;}.cls-9{fill:#ef6e4b;}.cls-10{fill:#db614d;}.cls-11{fill:#1a4850;}.cls-12{fill:#205260;}.cls-13{fill:#8b383e;}.cls-14{fill:#662c33;}.cls-15{fill:#8bbddb;}.cls-16{fill:#105e99;}.cls-17{fill:#6097b2;}.cls-18{fill:#07262d;}.cls-19{fill:#164353;}.cls-20{fill:#225866;}</style></defs><title>Asset 2</title><g id="Layer_2" data-name="Layer 2"><g id="OBJECTS"><path class="cls-1" d="M112.73,262.78s15,40,15.95,52.66c0,0,3.77,3,10.19.34,0,0,.18-38.27-6.11-50.1S112.73,262.78,112.73,262.78Z"/><path class="cls-2" d="M109.45,333.05h31.64a14.51,14.51,0,0,0-.7-9.23s1.39-5.46.85-7.27-7-4-8.79-2.11a5,5,0,0,0-1.2,3.9c-.89-5-3.16-5.43-5.37-3.46s.49,1,.05,4.29a2.89,2.89,0,0,1-.18.67,3.61,3.61,0,0,1-.86,1.26,6.53,6.53,0,0,1-1.25.94,8.29,8.29,0,0,1-.79.42,12,12,0,0,1-1.68.62,15.65,15.65,0,0,1-3,.57c-4.33.4-6.07.71-8.06,3s-.73,4-.73,4Z"/><path class="cls-3" d="M125.75,319.83a3.61,3.61,0,0,1-.86,1.26,3.74,3.74,0,0,1,4.38.9l.81-1C128.11,318.53,125.93,319.73,125.75,319.83Z"/><path class="cls-3" d="M126.39,324.31l1.1-.69a3.44,3.44,0,0,0-2.61-2.53,6.52,6.52,0,0,1-1.25.94A3.71,3.71,0,0,1,126.39,324.31Z"/><path class="cls-3" d="M123.34,325.51l1.16-.58a3.59,3.59,0,0,0-1.65-2.47,12,12,0,0,1-1.68.62A3.78,3.78,0,0,1,123.34,325.51Z"/><path class="cls-2" d="M177.31,325.47a6.78,6.78,0,0,0,2.38-2.71,27.15,27.15,0,0,0,0-7.65c-.62-3.92,1.09-7.12,6.64-8.33,5.4-1.17,8.6,1.43,7.35,12.28h0c.82,4.51,1,9.65-.88,14H176.18S173.56,327.44,177.31,325.47Z"/><path class="cls-1" d="M162.73,267a50.4,50.4,0,0,0,6.11,21.93c6.22,11.31,13.91,26.82,13.91,26.82s5.12,5,8.38-3.28c0,0-2.3-28.82-7.57-39.36S162.73,267,162.73,267Z"/><path class="cls-2" d="M189.93,316.77s1.54-3.13.17-4.48-3,1.15-5.32.6-2.88-2.22-3.49,0S181.42,322.32,189.93,316.77Z"/><path class="cls-3" d="M181.13,316.63s6.28,2.23,9.54,0l-.83,2.72s-6.83.72-7.77-1Z"/><path class="cls-3" d="M181.21,320s5.75-.8,8.53.63V322s-7.5-1.75-9.93,0Z"/><path class="cls-3" d="M190,324.79a5.24,5.24,0,0,0-4.62-2.91,9.13,9.13,0,0,0-5.86,1.73S185.09,321.32,190,324.79Z"/><path class="cls-4" d="M188.41,264.14a16.66,16.66,0,0,1-1.87,3.13c-.15.21-.32.42-.5.64-3.46,4.28-11.07,10-25,4.36,0,0-.35-.8-.84-2.06-.08-.22-.17-.45-.27-.7a51.39,51.39,0,0,1-2.5-8.35c-3.63-20.16-5-34.77-6.9-43.06C145.22,231,133.24,256,132.71,257c-.67,1.33,2,9.93,2,9.93-10,3.26-24.33-.9-24.33-.9s-4.34-12.7-5-21.76c-.51-6.94,17-45.82,25.18-63.64.21-.47.42-.91.61-1.35,2.16-4.67,3.54-7.58,3.54-7.58l14,4.73,34,15.3s.6.69,1.16,7.7c0,.18,0,.38,0,.56.32,4.17.62,10.42.8,19.78v.58q.06,3.06.1,6.57v.56c0,5.38.05,11.56,0,18.68,0,.19,0,.38,0,.58,0,2.21,0,4.5-.06,6.89,0,2.18,1.7,6.3,2.78,8.67.09.2.18.39.25.56C188.17,263.66,188.41,264.14,188.41,264.14Z"/><path class="cls-5" d="M186.54,267.27c-.15.21-.32.42-.5.64-1.55-2.64-4-7.14-4.52-10.22-.81-4.42-1.2-21.8,0-40.09,1.16-17.73-2.74-35.12-2.78-35.3l.73-.16c0,.17,4,17.67,2.8,35.51-1.19,18.23-.81,35.53,0,39.9C182.78,260.4,185,264.64,186.54,267.27Z"/><path class="cls-5" d="M181.27,197.57c-10.87-3.92-13.64-12.83-13.67-12.92l.72-.21c0,.09,2.7,8.64,13.2,12.43Z"/><path class="cls-5" d="M141.17,177.66a3.74,3.74,0,0,1-1.6.25c-2.11.13-5.95.36-9,2.76.21-.47.42-.91.61-1.35a17.65,17.65,0,0,1,8.35-2.16,7,7,0,0,0,1.24-.13Z"/><path class="cls-5" d="M150.22,218.27c-7.89-15.75,2.33-36.94,2.43-37.15l.67.33c-.1.21-10.16,21.06-2.43,36.48Z"/><path class="cls-5" d="M148.67,202.89a4.2,4.2,0,0,1-1.21-.16l.23-.71a3.62,3.62,0,0,0,2.8-.39c1.15-.74,1.86-2.24,2.12-4.44.78-6.65,5.87-14.87,6.09-15.22l.64.4c-.05.08-5.22,8.43-6,14.91-.29,2.45-1.12,4.13-2.47,5A4.09,4.09,0,0,1,148.67,202.89Z"/><path class="cls-6" d="M110.61,29.27s1.24-2.84,6.45-2.84c4,0,5.56,2.22,5.56,2.22,2.41,7,5,34,5.92,34.91C129,64,159,87,159,87c-16.19.3-16.82,27.2-16.82,27.2-.52-6.56-23.1-23.08-28.83-33.87C108,70.25,105.45,45.64,110.61,29.27Z"/><path class="cls-7" d="M207.7,125.38c-2.46,27.14-12.26,53.37-15.66,64.3-.73,2.36-1.17,3.68-1.17,3.68s-53.23-6.9-59.53-21.28c0,0,.1-.39.27-1.13,1.59-6.54,9.45-33,10.35-54.69,1-24.11,9.08-32.64,14-31.54,0,0,11,8.7,18.06,8.67s23.88-7.67,23.88-7.67S210.69,92.38,207.7,125.38Z"/><circle class="cls-8" cx="174.07" cy="80.29" r="3.19"/><path class="cls-6" d="M239.85,31.17s-1.24-2.84-6.45-2.84c-4,0-5.56,2.22-5.56,2.22-2.41,7-5,34-5.92,34.91-.47.49-30.48,23.4-30.48,23.4-.72,18.8,16.82,27.2,16.82,27.2.52-6.56,23.1-23.08,28.83-33.87C242.42,72.15,245,47.55,239.85,31.17Z"/><path class="cls-6" d="M167.32,93s-2.91,1.16-3.51,2.43,1.64,6.48,5.94,6.87,12.46-4.56,12.13-6.17S175.44,92.47,167.32,93Z"/><path class="cls-9" d="M166.9,87s1.6,6.61-.84,9.25c0,0,4,6.45,13-.06,0,0-1.72-4.35,0-7.17Z"/><path class="cls-8" d="M192.42,69a3.25,3.25,0,0,0-2.63-3.19,3.25,3.25,0,0,0-2.22-5.54,3.24,3.24,0,0,0-4.74-4.3,3.25,3.25,0,0,0-6-1.77,3.23,3.23,0,0,0-5.88-.56,3.23,3.23,0,0,0-5.47,2.11,3.23,3.23,0,0,0-4.88,3.5h-.1a3.25,3.25,0,0,0-2.34,5.5,3.24,3.24,0,0,0-.49,6.23,3.23,3.23,0,0,0,1.48,5.85,6.66,6.66,0,0,0,2.94,4.08c1.47,1.36,13.47,2.72,19.21,2.24a3.25,3.25,0,0,0,5.59-2.26s0,0,0,0a3.19,3.19,0,0,0,2.79-4.08,3.23,3.23,0,0,0,1.24-5.06A3.25,3.25,0,0,0,192.42,69Z"/><path class="cls-1" d="M184.6,75.1s3.4-3.39,3.81.57c.48,4.59-3.69,6.44-4.5,5S184.6,75.1,184.6,75.1Z"/><path class="cls-1" d="M160.81,75.34s-3.4-3.39-3.81.57c-.48,4.59,3.69,6.44,4.5,5S160.81,75.34,160.81,75.34Z"/><path class="cls-1" d="M173.06,91.73c7.54,0,11.79-4.92,11.79-19.69,0-7.62-3.88-12.29-12.32-12.29s-12,4.67-12,12.29C160.54,87.9,165.27,91.73,173.06,91.73Z"/><ellipse class="cls-10" cx="164.75" cy="77.6" rx="1.39" ry="1.74" transform="matrix(0.17, -0.99, 0.99, 0.17, 59.98, 226.56)"/><ellipse class="cls-10" cx="180.27" cy="77.6" rx="1.74" ry="1.39" transform="translate(-4.67 11.9) rotate(-3.73)"/><path class="cls-8" d="M166.35,69.39a.37.37,0,0,0,.29-.07,4.31,4.31,0,0,1,3-.59.38.38,0,0,0,.44-.3.38.38,0,0,0-.3-.44,5,5,0,0,0-3.62.73.38.38,0,0,0,.17.67Z"/><path class="cls-8" d="M180.78,69.44a.37.37,0,0,0,.24-.13.38.38,0,0,0-.05-.53,5,5,0,0,0-3.6-.85.38.38,0,0,0-.31.43.38.38,0,0,0,.43.31,4.34,4.34,0,0,1,3,.68A.38.38,0,0,0,180.78,69.44Z"/><ellipse class="cls-11" cx="168.07" cy="73.64" rx="0.94" ry="1.69"/><ellipse class="cls-11" cx="178.14" cy="73.64" rx="0.94" ry="1.69"/><path class="cls-8" d="M181.51,63.36l-16.76-1.19s-4.21,4.39-3.91,15.18c0,0-6.74-19.45,12.94-19.45s10.82,19,10.82,19S185.17,67,181.51,63.36Z"/><path class="cls-10" d="M172.58,78.68l.56-.57-1.49-1.48c1.45-2,1.44-6.77,1.44-7h-.8c0,.05,0,5.14-1.47,6.74l-.26.28Z"/><path class="cls-11" d="M177.59,81.14s-7.42.31-11.16-.68a5,5,0,0,0,5.09,5.66C177.59,86.41,177.59,81.14,177.59,81.14Z"/><path class="cls-7" d="M117.59,25.71s-5.59.26-5.57,2,0,3.95,4.69,3.7,4.72-2.08,4.78-3.83S119.11,25.56,117.59,25.71Z"/><path class="cls-7" d="M234.82,26.73s-5.59,0-5.67,1.75-.19,3.94,4.49,3.94,4.82-1.83,5-3.57S236.35,26.66,234.82,26.73Z"/><path class="cls-1" d="M108.8,14.54A23.84,23.84,0,0,1,110.92,19c.56,3,.88,4.62,1.92,6s.49,3.77.49,3.77,4,2.08,7.44-.49c0,0-.36-2.39,0-3.06.7-1.35,2.94-2.08,3.71-4.81a21.43,21.43,0,0,1,3.06-5.8s-.66-1.42-1.85-.56-2,3.06-2.63,3.29a1.73,1.73,0,0,1-.4.09h0a1.62,1.62,0,0,1-1.32-.34.21.21,0,0,1-.08-.07c-1.1-1.28-1.35-5-1.31-6.71.07-2.33,0-5.55-1.44-5s-.12,1.84-1.22,7l-.53.07c-.1.37-1.08-3.12-1.31-6.4-.17-2.25-1.64-1.42-2-.71s.17,3,.27,4.59c.08,1.08.17,2.2.22,2.86l-.62.34c-2.24-3.91-1.48-5.53-2.79-5.61s-.83,3.22-.13,4.47a12.37,12.37,0,0,1,.82,2.79c-2.3-2.65-2-4-3.1-3.87S108,13.63,108.8,14.54Z"/><path class="cls-9" d="M118.73,20.66c.78-2.14,3.55-3.12,3.9-3.23a1.62,1.62,0,0,1-1.32-.34A3.9,3.9,0,0,0,118.73,20.66Z"/><path class="cls-1" d="M241.85,15.28a23.84,23.84,0,0,0-2.12,4.45c-.56,3-.88,4.62-1.92,6s-.49,3.77-.49,3.77-4,2.08-7.44-.49c0,0,.36-2.39,0-3.06-.7-1.35-2.94-2.08-3.71-4.81a21.43,21.43,0,0,0-3.06-5.8s.66-1.42,1.85-.56,2,3.06,2.63,3.29a1.73,1.73,0,0,0,.4.09h0a1.62,1.62,0,0,0,1.32-.34.21.21,0,0,0,.08-.07c1.1-1.28,1.35-5,1.31-6.71-.07-2.33,0-5.55,1.44-5s.12,1.84,1.22,7l.53.07c.1.37,1.08-3.12,1.31-6.4.17-2.25,1.64-1.42,2-.71s-.17,3-.27,4.59c-.08,1.08-.17,2.2-.22,2.86l.62.34c2.24-3.91,1.48-5.53,2.79-5.61s.83,3.22.13,4.47a12.37,12.37,0,0,0-.82,2.79c2.3-2.65,2-4,3.1-3.87S242.65,14.37,241.85,15.28Z"/><path class="cls-9" d="M231.92,21.4c-.78-2.14-3.55-3.12-3.9-3.23a1.62,1.62,0,0,0,1.32-.34A3.9,3.9,0,0,1,231.92,21.4Z"/><path class="cls-6" d="M192,189.68c-.73,2.36-1.17,3.68-1.17,3.68s-53.23-6.9-59.53-21.28c0,0,.1-.39.27-1.13C135,176.56,175.79,190.2,192,189.68Z"/><path class="cls-5" d="M306,332.7h25.89c1.81-10.29-1.08-20.6-1.08-20.6l-11.84-2c-1.08,6.51-2.38,9.07-4.17,10.39h0c-1.31,1-2.88,1.27-4.83,1.94a6.21,6.21,0,0,0-4,3.72A11,11,0,0,0,306,332.7Z"/><path class="cls-12" d="M306,326.13c6.38.8,20.41,2.17,19.55-1.53-.71-3.09-6.63-3.92-10.71-4.13h0c-1.31,1-2.88,1.27-4.83,1.94A6.21,6.21,0,0,0,306,326.13Z"/><path class="cls-5" d="M392.74,332.7h25.89a12,12,0,0,0,.44-5,6.27,6.27,0,0,0-4.41-5.31c-2.24-.78-4-1.07-5.37-2.39s-2.68-4.11-3.64-9.95l-11.84,2S390.94,322.41,392.74,332.7Z"/><path class="cls-12" d="M419.08,327.72a6.27,6.27,0,0,0-4.41-5.31c-2.24-.78-4-1.07-5.37-2.39-3.28,1-7.86,2.86-9.28,5.67C398,329.55,413.17,328.94,419.08,327.72Z"/><path class="cls-13" d="M407.51,311.84s-2,6.43-14.87,2c0,0-9.58-72-11.06-73.54S364.9,191.7,364.9,191.7h-4.76s-15.2,47-16.68,48.59-11,73.54-11,73.54c-12.91,4.44-14.88-2-14.88-2l6.2-77.58,12.92-80,25.87,2.89,25.87-2.89,3.37,20.89.14.82,9.41,58.28Z"/><path class="cls-14" d="M391.9,176a17.08,17.08,0,0,1-11.61-10.43l.72-.22a16.29,16.29,0,0,0,10.75,9.83Z"/><path class="cls-14" d="M364.3,184.6a3.46,3.46,0,0,1-2.62,1.09c0,1.93,0,4-.11,6h-.75a120.12,120.12,0,0,0-.54-17.06l.74-.09c0,.08.53,4.64.64,10.38a2.77,2.77,0,0,0,2.1-.84c2.47-2.61,1-10.15,1-10.22l.74-.14C365.58,174,367,181.72,364.3,184.6Z"/><path class="cls-1" d="M434,13.55a23.84,23.84,0,0,0-4.37,2.28c-2.24,2-3.48,3.16-5.14,3.62s-1.79,3.48-1.79,3.48-6.33,2.7-7.5-1.39c0,0,2.7-5.93,2.82-6.68.26-1.5-1.1-3.43-.06-6.07a21.43,21.43,0,0,0,1-6.47s1.38-.74,1.81.67-.27,3.64.12,4.21a1.73,1.73,0,0,0,.27.31l0,0a1.62,1.62,0,0,0,1.26.52.21.21,0,0,0,.1,0c1.65-.36,4.11-3.2,5.09-4.56,1.35-1.9,3.36-4.42,4.17-3.13s-1,1.54-3.23,6.31L429,7c-.14.35,2.74-1.84,4.9-4.31,1.49-1.7,2.17-.14,2,.62S434,5.6,433,6.84L431.05,9l.29.65c4.14-1.77,4.51-3.52,5.6-2.8s-1.28,3.07-2.59,3.65A12.37,12.37,0,0,0,432,12.22c3.43-.73,4.07-2,4.81-1.23S435.22,13.31,434,13.55Z"/><path class="cls-9" d="M422.43,12.46c.67-2.18-1-4.63-1.16-4.93a1.62,1.62,0,0,0,1.26.52A3.9,3.9,0,0,1,422.43,12.46Z"/><path class="cls-1" d="M239.67,50.57a23.84,23.84,0,0,1,4.9.51c2.83,1.08,4.4,1.66,6.11,1.48s2.94,2.58,2.94,2.58,6.88.19,6.46-4c0,0-4.69-4.52-5.08-5.18-.79-1.3-.24-3.59-2.17-5.67a21.43,21.43,0,0,1-3.35-5.63s-1.55-.18-1.44,1.29,1.59,3.28,1.43,4a1.73,1.73,0,0,1-.13.39.09.09,0,0,0,0,0,1.62,1.62,0,0,1-1,.95.21.21,0,0,1-.1,0c-1.66.27-5-1.46-6.41-2.37-2-1.27-4.75-2.87-5-1.38s1.51,1.06,5.33,4.68l-.22.49c.26.28-3.22-.71-6.14-2.21-2-1-2.07.66-1.63,1.31s2.61,1.4,4.05,2.16l2.56,1.3,0,.71c-4.5-.12-5.49-1.62-6.24-.54s2.31,2.39,3.75,2.44a12.37,12.37,0,0,1,2.81.75c-3.46.58-4.51-.36-4.92.63S238.48,50.78,239.67,50.57Z"/><path class="cls-9" d="M250.06,45.28c-1.42-1.78-.81-4.66-.73-5a1.62,1.62,0,0,1-1,.95A3.9,3.9,0,0,0,250.06,45.28Z"/><path class="cls-2" d="M424.44,24.23s-.69,2.53-1.81,6.35c-.45,1.56-1,3.33-1.56,5.24-.9,3-1.93,6.21-3,9.45-.59,1.77-1.2,3.53-1.82,5.23a89.86,89.86,0,0,1-4.69,11.1c-.21.39-.42.76-.62,1.1a23.47,23.47,0,0,1-2.51,3.3,86.63,86.63,0,0,1-6.66,6.68c-1.31,1.21-2.7,2.45-4.13,3.69-2.34,2-4.79,4.09-7.22,6.07-1.52,1.25-3,2.47-4.49,3.63-7.49,6-13.69,10.56-13.69,10.56L361,73.79c3.19-2.16,9.07-5.78,15.22-9.48l4.36-2.63,6.5-3.87,4.45-2.62,4.67-2.75,2-1.15,1.36-2.64c1-1.93,2.46-4.77,4.14-8,.74-1.42,1.52-2.92,2.33-4.44,1.27-2.42,2.6-4.91,3.88-7.29.83-1.54,1.65-3,2.41-4.43,2.15-3.88,3.95-7,4.88-8.22A12,12,0,0,1,424.44,24.23Z"/><path class="cls-15" d="M390.4,82.44c-1.52,1.25-3,2.47-4.49,3.63a42.58,42.58,0,0,0-9.65-21.76l4.36-2.63A47.22,47.22,0,0,1,390.4,82.44Z"/><path class="cls-15" d="M401.75,72.68c-1.31,1.21-2.7,2.45-4.13,3.69-2.61-9.9-7.41-15.69-10.5-18.56l4.45-2.62A43,43,0,0,1,401.75,72.68Z"/><path class="cls-15" d="M411.54,61.6c-.21.39-.42.76-.62,1.1a23.47,23.47,0,0,1-2.51,3.3,50.87,50.87,0,0,0-12.17-13.56l2-1.15,1.36-2.64A54.88,54.88,0,0,1,411.54,61.6Z"/><path class="cls-15" d="M418.05,45.27c-.59,1.77-1.2,3.53-1.82,5.23a64.89,64.89,0,0,0-12.53-9.83c.74-1.42,1.52-2.92,2.33-4.44A71.57,71.57,0,0,1,418.05,45.27Z"/><path class="cls-15" d="M422.63,30.58c-.45,1.56-1,3.33-1.56,5.24a39.11,39.11,0,0,0-11.16-6.88c.83-1.54,1.65-3,2.41-4.43A45.51,45.51,0,0,1,422.63,30.58Z"/><path class="cls-2" d="M330,79.71l-2,25.35s-7-1.87-15.79-4.54c-1.69-.51-3.44-1.05-5.21-1.61-3.13-1-6.34-2-9.44-3.14-1.69-.59-3.34-1.18-4.93-1.79A90.76,90.76,0,0,1,283,89.83a23.54,23.54,0,0,1-3.45-2.1c-.29-.22-.59-.47-.91-.75a78.31,78.31,0,0,1-7.34-7.51c-1.11-1.28-2.25-2.61-3.4-4-2.25-2.71-4.5-5.53-6.56-8.18-1.11-1.41-2.15-2.77-3.12-4-3.54-4.66-6-8.07-6-8.07.25-5.91,4.64-7.59,4.64-7.59,1.56,1,5.2,3.83,9.44,7.29l3.91,3.21c2.25,1.86,4.54,3.78,6.67,5.58l3.84,3.23,4.74,4,1.74,1.48,2.92.45,6.4,1,5,.8,6.84,1.12,5,.82C320.06,77.78,326.4,78.91,330,79.71Z"/><path class="cls-15" d="M312.19,100.52c-1.69-.51-3.44-1.05-5.21-1.61a72.39,72.39,0,0,1,1.38-23.09l5,.82A68.24,68.24,0,0,0,312.19,100.52Z"/><path class="cls-15" d="M301.52,74.7a70.75,70.75,0,0,0-4,21.07c-1.69-.59-3.34-1.18-4.93-1.79a75.05,75.05,0,0,1,3.87-20.08Z"/><path class="cls-15" d="M290.08,72.89A94.12,94.12,0,0,0,283,89.83a23.54,23.54,0,0,1-3.45-2.1c-.29-.22-.59-.47-.91-.75a101.21,101.21,0,0,1,6.82-16l1.74,1.48Z"/><path class="cls-15" d="M280.68,66.92a99.3,99.3,0,0,0-9.42,12.55c-1.11-1.28-2.25-2.61-3.4-4a105.31,105.31,0,0,1,9-11.8Z"/><path class="cls-15" d="M270.17,58.11a92,92,0,0,0-8.87,9.2c-1.11-1.41-2.15-2.77-3.12-4a95.1,95.1,0,0,1,8.08-8.37Z"/><path class="cls-2" d="M396.92,160.33s-14,14.63-33,18.25a193.06,193.06,0,0,1-31.69,3.22s-.85-3.81-2.16-9.79c-.33-1.54-.7-3.23-1.09-5-.7-3.23-1.48-6.84-2.29-10.66q-.53-2.45-1.06-5c-.66-3.11-1.33-6.31-2-9.52-.34-1.65-.68-3.31-1-5-.83-4.07-1.64-8.1-2.38-11.92q-.51-2.59-1-5c-.87-4.58-1.6-8.72-2.13-12.09-.31-2-.55-3.73-.7-5.12-.05-.5-.09-1-.12-1.37-.25-3.47-.38-6.69-.42-9.58,0-1.88,0-3.61,0-5.17.09-5.51.42-8.88.42-8.88,3.95-2.7,31.18,6,31.18,6s20.11-17.31,23.26-16.06a12.2,12.2,0,0,1,5.08,4.57,35,35,0,0,1,2.64,4.5,79.73,79.73,0,0,1,4.07,9.94c.58,1.72,1.15,3.52,1.71,5.38.92,3.07,1.78,6.3,2.61,9.62.41,1.68.82,3.39,1.21,5.11.74,3.24,1.44,6.53,2.08,9.81q.53,2.61,1,5.19c.55,3,1.07,5.88,1.54,8.7.31,1.82.6,3.61.87,5.34.61,3.85,1.14,7.44,1.59,10.62.27,2,.51,3.74.72,5.35C396.57,157.08,396.92,160.33,396.92,160.33Z"/><path class="cls-15" d="M378.47,76.73c-6.08,6.2-16.79,15.33-29.11,17.79a42.25,42.25,0,0,1-8.14.71c-8,0-17.23-1.61-25.33-3.5,0-1.88,0-3.61,0-5.17,10.78,2.6,23.8,4.79,32.49,3.06,11.61-2.31,22-11.69,27.45-17.39A35,35,0,0,1,378.47,76.73Z"/><path class="cls-15" d="M384.25,92c-6.21,5.82-21.8,16.7-51.42,16.7a134.6,134.6,0,0,1-15.7-1c-.31-2-.55-3.73-.7-5.12,43.15,5.35,61.91-11.48,66.11-16C383.12,88.39,383.69,90.19,384.25,92Z"/><path class="cls-15" d="M388.07,106.78c-12,6.77-36.59,18.18-65.6,18.18q-1.12,0-2.25,0-.51-2.59-1-5c30.1.87,56.17-11.7,67.6-18.22C387.27,103.35,387.68,105.06,388.07,106.78Z"/><path class="cls-15" d="M391.15,121.78c-10.42,5.69-37,18.47-67.54,20-.34-1.65-.68-3.31-1-5,31.11-1.45,58.65-15.32,67.55-20.26Q390.68,119.2,391.15,121.78Z"/><path class="cls-15" d="M393.56,135.82c-11.93,7-37.91,20-66.89,20.5q-.53-2.45-1.06-5c29.41-.26,56.38-14.44,67.08-20.85C393,132.3,393.29,134.09,393.56,135.82Z"/><path class="cls-15" d="M395.87,151.79c-12.29,6.85-39.46,20.25-64,20.25l-1.77,0c-.33-1.54-.7-3.23-1.09-5,25.06,1.17,54.87-14.13,66.19-20.54C395.42,148.39,395.66,150.18,395.87,151.79Z"/><path class="cls-9" d="M351.22,73.58s-.81,6.78,1.69,8.86c0,0-1.27,4.83-5,5.75-4.34,1.06-6.79-3.5-6.79-3.5s1.14-6.62-1.59-8.35Z"/><path class="cls-16" d="M354.51,59.21s2.65-4.49-3.69-11.6c0,0-3-6.81-13.33-8.38s-18,9.71-18,15.9,3.67,0,3.67,0,.83,4.34,2,6.27c0,0-.38,6.24,3.56,6.25S354.51,59.21,354.51,59.21Z"/><path class="cls-1" d="M330.78,66.7s-4.11-2-3.28,1.68c1,4.31,5.3,4.72,5.59,3.15S330.78,66.7,330.78,66.7Z"/><path class="cls-1" d="M352.42,59.68s2-4.11,3.63-.64c1.83,4-1.38,7-2.57,5.88S352.42,59.68,352.42,59.68Z"/><path class="cls-1" d="M346.29,78.26c-6.83,2.29-12.18-.88-16.67-14.26-2.31-6.9-.22-12.31,7.43-14.88s12.29.59,14.61,7.49C356.48,71,353.35,75.9,346.29,78.26Z"/><ellipse class="cls-10" cx="349.53" cy="62.93" rx="1.66" ry="1.33" transform="translate(12.19 174) rotate(-28.43)"/><ellipse class="cls-10" cx="335.46" cy="67.65" rx="1.66" ry="1.33" transform="translate(-6.15 87.99) rotate(-14.81)"/><path class="cls-7" d="M345.55,56.25a.36.36,0,0,1-.28,0,4.12,4.12,0,0,0-2.95-.07.37.37,0,0,1-.46-.21.36.36,0,0,1,.21-.46,4.81,4.81,0,0,1,3.53.11.36.36,0,0,1-.05.66Z"/><path class="cls-7" d="M332.68,60.56a.36.36,0,0,1-.27,0,.36.36,0,0,1-.17-.48A4.82,4.82,0,0,1,335,57.85a.36.36,0,0,1,.45.24.37.37,0,0,1-.24.45,4.15,4.15,0,0,0-2.31,1.83A.36.36,0,0,1,332.68,60.56Z"/><ellipse class="cls-11" cx="345.32" cy="60.35" rx="0.9" ry="1.62" transform="translate(-1.27 112.9) rotate(-18.53)"/><ellipse class="cls-11" cx="336.19" cy="63.41" rx="0.9" ry="1.62" transform="translate(-2.72 110.17) rotate(-18.54)"/><path class="cls-11" d="M340.09,72.2S346.38,71,349,68.43c0,0-.38,4.69-3.79,5.42A4.94,4.94,0,0,1,340.09,72.2Z"/><path class="cls-10" d="M344.31,68.4a6.61,6.61,0,0,1-1.62.29l0-.76c.78,0,1.95-.3,2.1-.67.05-.13-.06-.35-.31-.61-1.69-1.77-3.68-7-3.76-7.24l.72-.27c0,.05,2,5.32,3.6,7a1.33,1.33,0,0,1,.47,1.42A1.75,1.75,0,0,1,344.31,68.4Z"/><path class="cls-7" d="M335.07,46.08c-15.27,5.66-6.1,20.08-6.1,20.08l2.22,2c-1-4.14-.28-6.42-.28-6.42a9.39,9.39,0,0,1-.85-6c1.94-1.64,6.7-4.72,15.49-5.66.07.07,2.37,2.42,2.61,4.72a22.3,22.3,0,0,1,5,7l.27-3.54S349.9,40.58,335.07,46.08Z"/><path class="cls-15" d="M333.32,313.4,326.59,315s-10.52-56.38-12.94-62.34c-2.08-5.14-11-24.8-13.92-39.9a10.51,10.51,0,0,1-2.31-.33h0l-1-.21-1-.21c-.25,15-3.52,33.61-4.52,38.81-1.21,6.31-.56,63.7-.56,63.7l-6.91-.23c-13.11-46.47-6.19-63.93-6.19-63.93s-12-41.83-7.76-56.58a99.09,99.09,0,0,1,4.83-13.13c.14-.31.27-.61.42-.9a87.9,87.9,0,0,1,6.11-11.31l14,1.76.13-.23.41.08v4.41l1.78-.09.4,0h0l5.83-.31.8,0,5.1-.27s3.06,4.87,7.42,12.7l.49.9c1.55,2.81,3.25,6,5,9.4,7,13.65,4.64,52.83,4.64,52.83S337.14,265.27,333.32,313.4Z"/><path class="cls-17" d="M285.5,170c-.05.1-3.67,8.71-11.16,10.59.14-.31.27-.61.42-.9,6.72-2.09,10-9.88,10-10Z"/><path class="cls-17" d="M317.29,187.29c-8.39-1.8-12.67-10.58-13.81-13.29-.2-.49-.3-.78-.31-.8l.71-.25s.14.4.4,1c1.2,2.78,5.13,10.47,12.52,12.43Z"/><path class="cls-17" d="M297.41,212.4l-1-.21A59.76,59.76,0,0,1,291.16,197c-2.62-11.62,3.34-24,3.4-24.12l.68.33c-.06.12-5.91,12.27-3.35,23.63.11.48.22.95.33,1.4l.18.73A53.9,53.9,0,0,0,297.41,212.4Z"/><path class="cls-17" d="M292,199h-.11l0-.75a1.62,1.62,0,0,0,1.23-.62c.5-.57,1.56-2.36.7-6.77-1.15-5.92,3.23-16.29,3.42-16.73l.69.29c0,.11-4.48,10.6-3.37,16.29.89,4.56-.17,6.6-.88,7.41A2.36,2.36,0,0,1,292,199Z"/><path class="cls-8" d="M292.17,115.4s2.23-4-.9-10.95-2.49-26,13.19-25.23c0,0,9.3-1.54,14,4.55s8.5,27.57,3.59,43.5S285.87,138.94,292.17,115.4Z"/><path class="cls-1" d="M309.38,173.69a32.3,32.3,0,0,1-28.51-5.28s-2.57-52.83,2.32-56.37c2.14-1.55,6.36-.31,10.43,1.58a78.36,78.36,0,0,1,10.27,6s9.11-1.29,16.29-.5c4.57.49,8.35,1.83,8.52,4.86C329.15,131.74,309.38,173.69,309.38,173.69Z"/><path class="cls-9" d="M320.57,119.19c-3.08-.32-3.65,2-6.73,3.13a42.88,42.88,0,0,1-8.19,2.13c-1.4.13-2.14,1.87-2.14,1.87s-.5-2.35-1.26-2.55S295,117,293.62,113.62a78.36,78.36,0,0,1,10.27,6s9.11-1.29,16.29-.5Z"/><path class="cls-2" d="M280.36,320.12c.42-2.88-.64-4.92.11-6.31,1.16-2.14,2.39.57,2.39.57.1-3.26,5.57-3.26,6.12-1.76a10.53,10.53,0,0,0,.49,1.1c.34-.79.92-1.55,1.66-1.1,2.92,1.75-.71,6.27,1.95,9.56,3.39,4.19,1.3,10.52,1.3,10.52H278.16C276.26,323.82,279.94,323,280.36,320.12Z"/><path class="cls-3" d="M290.37,319s-3.83-2-8.92.65l1-1.83a8.92,8.92,0,0,1,7.45-.53Z"/><path class="cls-3" d="M291,322.09a14.56,14.56,0,0,0-10.54.77l1-1.94s4.83-2.09,8.92-.53Z"/><path class="cls-2" d="M336.3,320.12c-.42-2.88.64-4.92-.11-6.31-1.16-2.14-2.39.57-2.39.57-.1-3.26-5.57-3.26-6.12-1.76a10.51,10.51,0,0,1-.49,1.1c-.34-.79-.92-1.55-1.66-1.1-2.92,1.75.71,6.27-1.95,9.56-3.39,4.19-1.3,10.52-1.3,10.52H338.5C340.39,323.82,336.72,323,336.3,320.12Z"/><path class="cls-3" d="M326.28,319s3.83-2,8.92.65l-1-1.83a8.92,8.92,0,0,0-7.45-.53Z"/><path class="cls-3" d="M325.61,322.09a14.56,14.56,0,0,1,10.54.77l-1-1.94s-4.83-2.09-8.92-.53Z"/><path class="cls-9" d="M302.72,102.1s1.17,14.1-2.76,16.12c0,0,2.9,5.35,10.67,2.09,0,0-1.31-7.25,3.83-15.87C317.91,98.67,302.72,102.1,302.72,102.1Z"/><path class="cls-1" d="M316.88,97.25s2.92-3.39,3.59.26c.78,4.24-3,6.25-3.83,5S316.88,97.25,316.88,97.25Z"/><path class="cls-1" d="M294.77,99.16s-3.4-2.91-3.51.8c-.13,4.3,3.88,5.73,4.54,4.31S294.77,99.16,294.77,99.16Z"/><path class="cls-1" d="M307.33,113.54c7-.53,10.62-5.41,9.57-19.15-.54-7.08-4.48-11.16-12.33-10.56S293.75,89,294.29,96.11C295.41,110.87,300.09,114.09,307.33,113.54Z"/><ellipse class="cls-10" cx="298.6" cy="100.99" rx="1.3" ry="1.62" transform="translate(169.26 388.45) rotate(-84.46)"/><ellipse class="cls-10" cx="313.04" cy="99.89" rx="1.62" ry="1.3" transform="translate(-10.94 45.02) rotate(-8.08)"/><path class="cls-8" d="M299.47,93.43a.35.35,0,0,0,.42-.1,4,4,0,0,1,2.62-1.18.35.35,0,1,0,0-.7,4.7,4.7,0,0,0-3.14,1.44.35.35,0,0,0,0,.49Z"/><path class="cls-8" d="M309.63,91.57a.35.35,0,0,0,.19,0,4,4,0,0,1,2.77.77.35.35,0,0,0,.47-.52,4.69,4.69,0,0,0-3.32-.95.35.35,0,0,0-.11.67Z"/><ellipse class="cls-11" cx="301.41" cy="97.07" rx="0.88" ry="1.58" transform="translate(-6.5 23.17) rotate(-4.35)"/><ellipse class="cls-11" cx="311.09" cy="96.27" rx="0.88" ry="1.58" transform="translate(-6.41 23.9) rotate(-4.35)"/><path class="cls-11" d="M309.66,104.93s-4.32.94-6.66-.06c0,0,1.52,3.14,3.88,2.66A3.5,3.5,0,0,0,309.66,104.93Z"/><path class="cls-11" d="M302.86,96.52s-.8-2.1-1.63-1.88-1.33,2.1-1.33,2.1l-1.29-.56,1.26.07s.5-2,1.34-2C302.38,94.13,302.86,96.52,302.86,96.52Z"/><path class="cls-11" d="M309.69,96.27s.48-2.19,1.33-2.1S312.65,96,312.65,96l1.19-.75-1.23.26s-.79-1.87-1.63-1.81C309.8,93.82,309.69,96.27,309.69,96.27Z"/><path class="cls-10" d="M305.86,101.62a2.18,2.18,0,0,0,.51.16l.14-.74c-.63-.12-.8-.49-.83-.79a.94.94,0,0,1,.41-.9c.13-.05.28,0,.43.24l.6-.46a1.09,1.09,0,0,0-1.31-.48,1.66,1.66,0,0,0-.89,1.68A1.55,1.55,0,0,0,305.86,101.62Z"/><path class="cls-8" d="M307.1,86.08s2.59-.85,3.67,3.11c1.87,6.86,3.23,18,7.67,23.52,3.23,4,5.19,2.38,5.19,2.38a16.25,16.25,0,0,0-.5-7.92c-1.37-4,.37-18.19-4.69-23.38s-14-1.87-14-1.87-4.3-2.55-8.5,0-5.39,14-1.1,19.09c0,0-.22-4.31,1.66-6S299.44,84,307.1,86.08Z"/><path class="cls-1" d="M274.2,29.75c-1.62,5.19,2.35,7.54-.58,11.09-1.82,2.2-4.57.41-4.57.41a35.17,35.17,0,0,0-6.1-8c-1.62-1.59-.47-1.61-.47-1.61l-.48-.37c-1.21-.92-2.25-1.41-1.1-1.76s4.85,2,4.85,2c-4.25-4.72-5.85-4.25-4.73-4.73,1.53-.66,5.81,2.87,5.94,3-2.05-3.25-3.86-4.33-2.69-4.45s5.55,5.14,7.13,7.09l.57.72C273,28.82,274.2,29.75,274.2,29.75Z"/><path class="cls-9" d="M271.39,32.42l.57.72a3.68,3.68,0,0,0-.64,3.61A3.29,3.29,0,0,1,271.39,32.42Z"/><path class="cls-9" d="M266.12,34.29c-.39-.37-2.6-2.48-3.65-2.66l-.48-.37C262.91,30.52,265.7,33.78,266.12,34.29Z"/><path class="cls-1" d="M273.61,40.84S273,75.1,271.25,81.9c0,0,6.23,21.52,15.56,29.33,0,0,1.45,5.84-6.61,17.32,0,0-15.69-28.06-18.21-44.12l7-43.17Z"/><path class="cls-16" d="M294.23,113.91c.8,2.84,1.24,12.81,10.7,17.93s19.58-2.37,22.33-10.54c0,0,1.15-1.74,4.89,2.48,0,0,19.67,9.53,22.2,14.48s1,23.88-6.85,24.17-17.36-8.47-19.86-2.72S310.51,186,280.2,169.47c0,0-3.81-4.77-3.81-9s-1.94-32.27-1.94-32.27-11.17-3.24-8.37-29.61c0,0,7.7,4.26,7.5-9.8,0,0,6.35-2.95,8.45,8.87,1.41,7.92,9.23,13.7,9.23,13.7S293,109.59,294.23,113.91Z"/><path class="cls-1" d="M358.83,148.07c6.69-2.8,21.41-15,26.67-22l-3.15-2.92S365,134.9,358.35,137s-10.17,5.91-9.36,10.64S357.42,148.66,358.83,148.07Z"/><path class="cls-1" d="M391,116.18c-3.26,4.35-7.49,2.51-8.64,7-.72,2.76,2.35,3.95,2.35,3.95a35.17,35.17,0,0,1,10.06.25c2.24.39,1.58-.57,1.58-.57l.59.17c1.46.45,2.46,1,2.08-.14s-4.5-2.74-4.5-2.74c6.32.67,6.87,2.25,6.61,1.06-.36-1.63-5.73-3-5.89-3.08,3.84-.24,5.78.59,5.18-.42s-7.41-1.49-9.93-1.62l-.92,0C392.45,116.6,391,116.18,391,116.18Z"/><path class="cls-9" d="M390.47,120l-.92,0A3.68,3.68,0,0,1,387,122.6,3.29,3.29,0,0,0,390.47,120Z"/><path class="cls-9" d="M392,125.37c.52.1,3.54.65,4.29,1.4l.59.17C397,125.77,392.7,125.42,392,125.37Z"/><path class="cls-1" d="M202.47,193.75a85.73,85.73,0,0,1,12.69-25.69l12.73,2.11.13-.23,1,.21h.15v0l13.14,2.63a122.78,122.78,0,0,1,9.42,25.42c3.76,14.89-7.49,52.5-7.49,52.5s6.33,17.65-8.33,63.65H229s2.58-57.3,1.58-63.65c-.86-5.48-2-25.55-1.4-40.92a9,9,0,0,1-2.5.18h0c0,15.38-1.74,35.37-2.78,40.81-1.21,6.32-.57,63.7-.57,63.7l-6.91-.23c-13.11-46.47-6.19-63.93-6.19-63.93S198.21,208.5,202.47,193.75Z"/><path class="cls-5" d="M261.67,123.93c-.45-7.81-24.82-4.37-24.82-4.37S221,108.49,216.15,112c-1.73,1.25-2.53,8.69-2.83,17.77-1.84,3.25-3.43,8.15-.16,12.61.06,13.34.67,26,.67,26a32.31,32.31,0,0,0,28.51,5.28s5.84-12.39,11.1-24.95c3.38-2.73,4.11-6.7,4-10C260,132.07,261.8,126.36,261.67,123.93Z"/><path class="cls-7" d="M258.61,84.16c-7.07-12.07-25-10.59-31.07-2.72-7.4,9.52-3.47,31.69-3.47,31.69s17-14.2,27.24,5.21C251.32,118.34,266.52,97.67,258.61,84.16Z"/><path class="cls-5" d="M213.32,320.12c.42-2.88-.64-4.92.11-6.31,1.16-2.14,2.39.57,2.39.57.1-3.26,5.57-3.26,6.12-1.76a10.53,10.53,0,0,0,.49,1.1c.34-.79.92-1.55,1.66-1.1,2.92,1.75-.71,6.27,1.95,9.56,3.39,4.19,1.3,10.52,1.3,10.52H211.12C209.22,323.82,212.9,323,213.32,320.12Z"/><path class="cls-12" d="M223.33,319s-3.83-2-8.92.65l1-1.83a8.92,8.92,0,0,1,7.45-.53Z"/><path class="cls-12" d="M224,322.09a14.56,14.56,0,0,0-10.54.77l1-1.94s4.83-2.09,8.92-.53Z"/><path class="cls-5" d="M239.23,320.12c-.42-2.88.64-4.92-.11-6.31-1.16-2.14-2.39.57-2.39.57-.1-3.26-5.57-3.26-6.12-1.76a10.51,10.51,0,0,1-.49,1.1c-.34-.79-.92-1.55-1.66-1.1-2.92,1.75.71,6.27-1.95,9.56-3.39,4.19-1.3,10.52-1.3,10.52h16.21C243.33,323.82,239.66,323,239.23,320.12Z"/><path class="cls-12" d="M229.22,319s3.83-2,8.92.65l-1-1.83a8.92,8.92,0,0,0-7.45-.53Z"/><path class="cls-12" d="M228.55,322.09a14.56,14.56,0,0,1,10.54.77l-1-1.94s-4.83-2.09-8.92-.53Z"/><path class="cls-9" d="M235.67,102.1a37.07,37.07,0,0,1-2.76,16.12s2.9,5.35,10.67,2.09c0,0-1.31-7.25,3.83-15.87C250.86,98.67,235.67,102.1,235.67,102.1Z"/><path class="cls-1" d="M252.88,98.1s3.69-2.53,3.4,1.18c-.34,4.29-4.48,5.28-5,3.8S252.88,98.1,252.88,98.1Z"/><path class="cls-1" d="M231,94.26s-2.54-3.69-3.6-.13c-1.23,4.13,2.28,6.54,3.28,5.34S231,94.26,231,94.26Z"/><path class="cls-1" d="M239.46,111.38c6.91,1.29,11.65-2.5,14.18-16,1.3-7-1.45-11.93-9.2-13.37s-11.8,2.23-13.1,9.22C228.63,105.74,232.32,110.05,239.46,111.38Z"/><ellipse class="cls-10" cx="234.25" cy="97.01" rx="1.3" ry="1.62" transform="translate(61.51 282.61) rotate(-69.55)"/><ellipse class="cls-10" cx="248.49" cy="99.66" rx="1.3" ry="1.62" transform="translate(120 334.55) rotate(-83.17)"/><path class="cls-7" d="M237,89.93a.35.35,0,0,0,.43,0,4,4,0,0,1,2.84-.47.35.35,0,0,0,.15-.69,4.7,4.7,0,0,0-3.4.58.35.35,0,0,0-.08.49Z"/><path class="cls-7" d="M247.33,90.74a.35.35,0,0,0,.17.08A4,4,0,0,1,250,92.28a.35.35,0,1,0,.59-.38,4.69,4.69,0,0,0-3-1.77.35.35,0,0,0-.28.62Z"/><ellipse class="cls-11" cx="237.98" cy="93.95" rx="1.58" ry="0.88" transform="translate(102.02 310.68) rotate(-79.44)"/><ellipse class="cls-11" cx="247.4" cy="95.84" rx="1.58" ry="0.88" transform="translate(107.86 321.51) rotate(-79.44)"/><path class="cls-11" d="M243.93,103.67s-4.42-.2-6.42-1.77c0,0,.66,3.42,3.06,3.57A3.5,3.5,0,0,0,243.93,103.67Z"/><path class="cls-11" d="M239.52,93.79s-.24-2.23-1.09-2.23-1.83,1.69-1.83,1.69l-1.11-.88,1.2.39s1-1.77,1.81-1.62C239.67,91.35,239.52,93.79,239.52,93.79Z"/><path class="cls-11" d="M246.18,95.3s1-2,1.83-1.69,1.09,2.23,1.09,2.23l1.35-.42-1.26-.07s-.29-2-1.11-2.16C246.92,93,246.18,95.3,246.18,95.3Z"/><path class="cls-10" d="M241.11,99.49a2.18,2.18,0,0,0,.45.29l.33-.68a.87.87,0,0,1-.6-1,.94.94,0,0,1,.63-.77c.14,0,.26.1.36.34l.7-.29a1.09,1.09,0,0,0-1.14-.8,1.66,1.66,0,0,0-1.29,1.4A1.55,1.55,0,0,0,241.11,99.49Z"/><path class="cls-7" d="M230.58,96.63s-2.87-8.38,2.34-15.25,19.29-1.77,21.87,3.52-2.46,16-2.46,16,3.9-14.19-3.95-16.53c0,0-1,3.55-7.05,6.07s-9.56,2.11-9.56,2.11Z"/><path class="cls-9" d="M255.35,119.39s8.88.16,30.65,22c3,3-.42,12.54-9.45,6.68C266.61,141.64,260,135,258,137.43,258,137.43,252.77,124.91,255.35,119.39Z"/><path class="cls-1" d="M287.28,140.16c-.07-7.26-5.77-25.47-10.31-33L273.08,109s4.34,20.49,3.77,27.45,1.63,11.65,6.32,12.69S287.3,141.68,287.28,140.16Z"/><path class="cls-1" d="M269.89,98.34c2.8,4.66-.5,7.88,3.19,10.63,2.29,1.71,4.54-.69,4.54-.69a35.17,35.17,0,0,1,4-9.23c1.2-1.93.07-1.68.07-1.68.13-.17.25-.32.38-.48,1-1.18,1.85-1.9.66-2-1.35-.09-4.23,3.13-4.23,3.13,3-5.6,4.68-5.51,3.47-5.72-1.64-.28-5,4.16-5.07,4.29,1.22-3.64,2.73-5.13,1.56-5s-4.17,6.3-5.25,8.58c-.24.51-.39.83-.39.83C270.83,97.15,269.89,98.34,269.89,98.34Z"/><path class="cls-9" d="M273.25,100.26c-.24.51-.39.83-.39.83a3.68,3.68,0,0,1,1.47,3.36A3.29,3.29,0,0,0,273.25,100.26Z"/><path class="cls-9" d="M278.81,100.84c.29-.45,1.94-3,2.92-3.45.13-.17.25-.32.38-.48C281,96.42,279.09,100.25,278.81,100.84Z"/><path class="cls-9" d="M219.15,111.35s-8.77-1.85-34.55,15.08c-3.58,2.35-2.16,12.36,7.88,8.47,11-4.28,19.38-9.53,20.9-6.69C213.38,128.21,220.55,117.28,219.15,111.35Z"/><path class="cls-1" d="M183.59,124.94c1.55-7.09,10.86-23.75,16.85-30.19l3.44,2.58s-8.45,19.17-9.31,26.09-4,11.07-8.78,11.12S183.26,126.43,183.59,124.94Z"/><path class="cls-1" d="M209.18,87.57c-3.69,4-1.12,7.82-5.3,9.75-2.59,1.2-4.3-1.6-4.3-1.6a35.16,35.16,0,0,0-2.05-9.86c-.78-2.13.27-1.66.27-1.66-.09-.19-.18-.37-.28-.54-.7-1.35-1.42-2.24-.24-2.07,1.34.19,3.5,3.93,3.5,3.93-1.8-6.09-3.45-6.35-2.23-6.31,1.67.06,4,5.09,4.08,5.24-.45-3.82-1.62-5.58-.51-5.17s2.79,7,3.38,9.47c.13.55.21.9.21.9C208.5,86.21,209.18,87.57,209.18,87.57Z"/><path class="cls-9" d="M205.5,88.77c.13.55.21.9.21.9a3.68,3.68,0,0,0-2.13,3A3.29,3.29,0,0,1,205.5,88.77Z"/><path class="cls-9" d="M199.95,88.19c-.19-.5-1.28-3.36-2.15-4-.09-.19-.18-.37-.28-.54C198.67,83.4,199.79,87.55,199.95,88.19Z"/><path class="cls-7" d="M213.72,165.81S184,206.5,193.33,249.6c0,0,10.06,9.35,17.94,6.1s16,8.49,23.09,4.75,13.26-6.5,18.15-4.5,13.12-6.35,13.12-6.35S262,202,243.93,170.47C243.93,170.47,229.21,177.2,213.72,165.81Z"/><path class="cls-18" d="M226,322.18A13.35,13.35,0,0,1,228,332.7h-2.74A30.78,30.78,0,0,1,226,322.18Z"/><path class="cls-19" d="M0,331.15a18.43,18.43,0,0,0,.12,2.15H32.94c0-.72,0-1.44,0-2.15a73.65,73.65,0,0,0-3.08-17.84l-8.2-3.92c-.71,4.71-2.53,7.71-4.81,9.67a11.62,11.62,0,0,1-1.88,1.34c-.3.18-.6.35-.92.5a14.79,14.79,0,0,1-2.1.86A46.58,46.58,0,0,1,4,323.3C.53,323.91,0,328.4,0,331.15Z"/><path class="cls-20" d="M0,331.15a18.43,18.43,0,0,0,.12,2.15H32.94c0-.72,0-1.44,0-2.15Z"/><path class="cls-20" d="M14.93,320.4,19.48,322l1-1.86-3.64-1.11A11.62,11.62,0,0,1,14.93,320.4Z"/><path class="cls-20" d="M11.91,321.77,15,324l1.89-.83L14,320.9A14.79,14.79,0,0,1,11.91,321.77Z"/><path class="cls-19" d="M125.43,331.15a10.07,10.07,0,0,0,.37,2.15h21.87a11.89,11.89,0,0,0,.61-2.15c2.16-11.64-12.38-25.89-12.38-25.89l-4.61,6.85s.53,11-3.37,13.24C125.58,326.72,125.28,329.29,125.43,331.15Z"/><path class="cls-20" d="M148.28,331.15H125.43a10.07,10.07,0,0,0,.37,2.15h21.87A11.89,11.89,0,0,0,148.28,331.15Z"/><path class="cls-20" d="M128.92,324.48s9.21-2.34,13.41.69v-1.69S134.58,319.28,128.92,324.48Z"/><path class="cls-20" d="M130.74,321.88s5.88-3,11.59,0l-.65-1.71S134.86,317.3,130.74,321.88Z"/><path class="cls-15" d="M9.91,227.65c0,9.79,7.8,89.56,7.8,89.56a41.15,41.15,0,0,0,14.07-.88c2.14-40.43,2.35-75.2,2.35-75.2l37.43-31.21.09-.08s.14.71.39,2c1.85,9.15,9.7,47.49,13,56.27,3.72,10,44.39,52.07,44.39,52.07,7.56-1.16,14-7.25,14-7.25-14.6-26.94-34.51-54-34.51-54-1.55-9.71-2.67-31.3-3.33-47.44l0-.75c-.44-10.93-.66-19.18-.66-19.18l6.86-15.65L68.11,158.11,58.34,172s-2.24,2.31-5.76,6l-.49.5C39,192.25,9.91,223.27,9.91,227.65Z"/><path class="cls-17" d="M105.53,211.51l0-.75c-9.18-5.54-7.64-14.39-7.61-14.48l-.57-.13C97.29,196.25,95.65,205.75,105.53,211.51Z"/><path class="cls-17" d="M72.23,203.67a61,61,0,0,0-.67,6.25l.09-.08s.14.71.39,2c.41-15.16,6-24.12,6.1-24.22l-.48-.37c-.06.08-3.6,5.78-5.32,15.72-6.63-6.55-.14-20-.07-20.1l-.51-.31C71.69,182.67,64.82,196.88,72.23,203.67Z"/><path class="cls-17" d="M52.1,178.52l0,0a2.28,2.28,0,0,0,.9.17c3.21,0,8.6-5,8.85-5.25l-.38-.49c-1.75,1.65-6.63,5.61-8.93,5Z"/><path class="cls-16" d="M108.64,92.48s-13.26-2.37-19.9,2.34-15.36,17-15.36,17,10.35,1.52,11.53,9.35C84.91,121.17,92.43,101.24,108.64,92.48Z"/><path class="cls-5" d="M128.59,100.17c5.61,3.37,15,16,15.41,23.82.41,7.6-4.64,14.58-8.05,20.52-10.64,18.53-21.84,34.91-26.6,56.64,0,.14-24.33,10.87-52.86-27.28,0,0,16.12-24.13,21.69-44.67,2.27-8.36,4.57-17.24,8.93-24.61,4.8-8.12,13-12.89,21.55-12.12C115.87,93.13,123.06,96.85,128.59,100.17Z"/><path class="cls-9" d="M130.94,92.4S127.35,99.22,129,103c0,0-12.31,4.73-12.31-2.93,0,0,2.32-5.74,1.45-9.45Z"/><path class="cls-9" d="M103.59,139.09s6.85,2.16,8.57,4.86,3.26,8.74,3.26,8.74H103.59l-2.23-4.56-2.61-6.07Z"/><path class="cls-19" d="M114.91,84.79s-4.81-2.24-1.7-18.33c2.06-10.66,5-12.25,6.95-12.34,0,0,2.35-3.93,10.48-2.05,5.57,1.29,10,5.06,12,12,2,7.27-2,22.87-7.43,24.42Z"/><path class="cls-1" d="M113.77,73.93s-3-4.69-4.17-.07c-1.33,5.36,2.8,8.37,3.93,6.8S113.77,73.93,113.77,73.93Z"/><path class="cls-1" d="M139.12,78.87s4.22-3.36,4,1.43c-.29,5.55-5.07,6.93-5.68,5S139.12,78.87,139.12,78.87Z"/><path class="cls-1" d="M123.16,95.93c-8-1.48-11.72-8.16-9.12-25.69,1.34-9,6.3-13.83,15.31-12.18S141.33,66,140,75C137.2,93.85,131.47,97.46,123.16,95.93Z"/><ellipse class="cls-10" cx="134.51" cy="80.79" rx="1.88" ry="1.68" transform="translate(-0.82 1.38) rotate(-0.59)"/><path class="cls-10" d="M119.78,78.22a1.69,1.69,0,0,1-2.18,1.16,1.9,1.9,0,0,1-1.49-2.11,1.69,1.69,0,0,1,2.18-1.16A1.9,1.9,0,0,1,119.78,78.22Z"/><path class="cls-11" d="M134.13,71a.38.38,0,0,0,.23-.08.49.49,0,0,0,.11-.63,5.3,5.3,0,0,0-3.48-2.2.41.41,0,0,0-.46.39.45.45,0,0,0,.35.51,4.55,4.55,0,0,1,2.91,1.81A.4.4,0,0,0,134.13,71Z"/><path class="cls-11" d="M119,68.22a.38.38,0,0,0,.25-.09,4.27,4.27,0,0,1,3.28-.68.41.41,0,0,0,.48-.36.45.45,0,0,0-.32-.53,5,5,0,0,0-3.93.84.49.49,0,0,0-.08.63A.4.4,0,0,0,119,68.22Z"/><path class="cls-11" d="M132.67,75.62c-.16,1.11-.75,1.93-1.3,1.83s-.87-1.09-.71-2.2.75-1.93,1.3-1.83S132.83,74.51,132.67,75.62Z"/><path class="cls-11" d="M121.93,73.65c-.16,1.11-.75,1.93-1.3,1.83s-.87-1.09-.71-2.2.75-1.93,1.3-1.83S122.09,72.53,121.93,73.65Z"/><path class="cls-11" d="M118.91,83.74s7,2.08,10.85,1.26c0,0-2.68,3.75-6.49,2.67S118.91,83.74,118.91,83.74Z"/><path class="cls-5" d="M118.58,62.1s9.08,7.31,20.48,7.87l-.32,11.29s10.62-21.78-10.39-25.63S113.45,76.1,113.45,76.1,114.1,65.61,118.58,62.1Z"/><path class="cls-10" d="M126,80.71l.06-1s-1.22-.11-1.54-.94a6,6,0,0,1,.84-2.41,19.71,19.71,0,0,0,1.75-4.87l-.86-.19a18.82,18.82,0,0,1-1.67,4.61c-.68,1.43-1.16,2.47-.87,3.24A2.74,2.74,0,0,0,126,80.71Z"/><path class="cls-16" d="M113.65,62.13C128.93,54.76,143.34,70,143.34,70s1.68-12.39-1.26-15.29a17.87,17.87,0,0,0-2.45-2c-6.74-4.73-15.71-4.64-19.83-3a4.9,4.9,0,0,0-1.87,1.16C115.51,53.69,113.65,62.13,113.65,62.13Z"/><path class="cls-5" d="M115.51,59.37a33,33,0,0,1,24.79,6s.76-8-.66-12.62c-6.74-4.73-15.71-4.64-19.83-3C117.41,52.76,115.51,59.37,115.51,59.37Z"/><path class="cls-16" d="M142.08,68.59s-2-9.61-4.77-12.32c-4.56-4.5-17.36-6-24.09-3.34s0,10.89,0,10.89S123.94,55.27,142.08,68.59Z"/><path class="cls-1" d="M122.27,132.44s-5.24,9-14.17,14.35c0,0-11.17-10.79-25.65-9.82,0,0,12,24.09,22.31,26.76,5.42,1.4,25-13,25-13S125.85,135.37,122.27,132.44Z"/><path class="cls-16" d="M141.58,116.06c-4.8-8.69-15.87,4.16-19.63,13.33s-6.52,11.12-6.52,11.12,11.06,5.14,11,14.36C126.41,154.87,152,135,141.58,116.06Z"/><path class="cls-9" d="M108.1,142.82s-6.74-7.35-28.89-16.95l2.86-10c-2.54-3.72-7.21-3.72-7.21-3.72S63.51,130,65.47,135.3C66.69,138.62,90.36,142.11,108.1,142.82Z"/><path class="cls-1" d="M83.84,128.27a7,7,0,0,0-1-2.34c-.82-1.29-.6-3.63-.89-4.35s-2-3.69-3.19-4.27-2.67-1.52-3,.11,2.07,1.17,3.15,3.52a8.43,8.43,0,0,0-4.22-.35c-1.87.49-2.39,2.39-.09,2.33a9.65,9.65,0,0,1,4.21,1.41s-2.4.4-2,1.63C77.34,127.66,80.27,126.61,83.84,128.27Z"/></g></g></svg>